<svg xmlns="http://www.w3.org/2000/svg" width="21.26" height="25" viewBox="0 0 21.26 25"><defs><style>.cls-1{fill:#d71a21;}</style></defs><title>Asset 14</title><g id="Layer_2" data-name="Layer 2"><g id="Layer_1-2" data-name="Layer 1"><path id="transport" class="cls-1" d="M10,21.66V20H21.26v1.67H10ZM10,10h9.7v8.33H10V10Zm1.62,6.67H18v-5H11.57ZM10,0h9.7V8.33H10Zm1.62,6.67H18v-5H11.57ZM4.3,25a4.17,4.17,0,1,1,4-4.3v.13a4.11,4.11,0,0,1-4,4.17Zm0-6.67a2.5,2.5,0,1,0,2.42,2.58v-.08a2.46,2.46,0,0,0-2.42-2.5Zm0,3.34a.84.84,0,1,1,.81-.86v0a.82.82,0,0,1-.81.83Zm-.81-20H.26V0H5.11V15H3.49V1.67Z"/></g></g></svg>