<svg xmlns="http://www.w3.org/2000/svg" xmlns:xlink="http://www.w3.org/1999/xlink" width="14" height="25" viewBox="0 0 14 25"><defs><path id="u7x0a" d="M457.988 800.542a1.614 1.614 0 0 1 0-2.238l9.259-9.512-9.804-10.072a1.614 1.614 0 0 1 0-2.239 1.511 1.511 0 0 1 2.179 0l10.348 10.632c.094.097.173.203.238.315.11.066.213.148.307.245.601.618.601 1.62 0 2.237l-10.349 10.632a1.512 1.512 0 0 1-2.178 0z"/></defs><g><g transform="translate(-457 -776)"><use fill="#333" xlink:href="#u7x0a"/></g></g></svg>