<svg xmlns="http://www.w3.org/2000/svg" width="16.1" height="14.02" viewBox="0 0 16.1 14.02"><defs><style>.cls-1{fill:#ccc;}</style></defs><title>heart (2)</title><g id="Layer_2" data-name="Layer 2"><g id="Layer_1-2" data-name="Layer 1"><path id="heart" class="cls-1" d="M11.3,1.12a3.54,3.54,0,0,1,3.6,3.4,3.19,3.19,0,0,1-1.1,2.4L8,12.62,2.1,6.82a3.45,3.45,0,0,1-1-2.3,3.61,3.61,0,0,1,3.6-3.4A3.72,3.72,0,0,1,8,3.32a3.41,3.41,0,0,1,3.3-2.2M11.5,0A4.47,4.47,0,0,0,8,1.62a4.48,4.48,0,0,0-6.4-.5,4.27,4.27,0,0,0-.4,6.3l6.3,6.2L8,14l.5-.4,6.2-6.1a4.1,4.1,0,0,0,1.4-3.1A4.55,4.55,0,0,0,11.5,0Z"/></g></g></svg>