<svg xmlns="http://www.w3.org/2000/svg" width="15" height="13.1" viewBox="0 0 15 13.1"><defs><style>.cls-1{fill:#ccc;}</style></defs><title>list (2)</title><g id="Layer_2" data-name="Layer 2"><g id="Layer_1-2" data-name="Layer 1"><path id="list" class="cls-1" d="M14.9,9a.27.27,0,0,1-.3.3H3.4A.27.27,0,0,1,3.1,9V7.7a.27.27,0,0,1,.3-.3H14.7a.27.27,0,0,1,.3.3V9ZM1.8,7.8a.27.27,0,0,0-.3-.3H.3a.27.27,0,0,0-.3.3V9.1a.27.27,0,0,0,.3.3H1.5a.27.27,0,0,0,.3-.3Zm13.1,3.7a.27.27,0,0,0-.3-.3H3.4a.27.27,0,0,0-.3.3v1.3a.27.27,0,0,0,.3.3H14.7a.27.27,0,0,0,.3-.3V11.5Zm-13.1,0a.27.27,0,0,0-.3-.3H.3a.27.27,0,0,0-.3.3v1.3a.27.27,0,0,0,.3.3H1.5a.27.27,0,0,0,.3-.3ZM14.9,4a.27.27,0,0,0-.3-.3H3.4a.27.27,0,0,0-.3.3V5.3a.27.27,0,0,0,.3.3H14.7a.27.27,0,0,0,.3-.3V4ZM1.8,4a.27.27,0,0,0-.3-.3H.3A.27.27,0,0,0,0,4V5.3a.27.27,0,0,0,.3.3H1.5a.27.27,0,0,0,.3-.3ZM14.9.3a.27.27,0,0,0-.3-.3H3.4a.27.27,0,0,0-.3.3V1.6a.27.27,0,0,0,.3.3H14.7a.27.27,0,0,0,.3-.3V.3ZM1.8.3A.27.27,0,0,0,1.5,0H.3A.27.27,0,0,0,0,.3V1.6a.27.27,0,0,0,.3.3H1.5a.27.27,0,0,0,.3-.3Z"/></g></g></svg>