<svg xmlns="http://www.w3.org/2000/svg" width="191" height="66.33" viewBox="0 0 191 66.33"><defs><style>.cls-1{fill:#fff;}.cls-2{fill:#ed1c24;}</style></defs><title>g10</title><g id="Layer_2" data-name="Layer 2"><g id="Layer_1-2" data-name="Layer 1"><g id="g10"><g id="g12"><path id="path16" class="cls-1" d="M33.16,66.33A33.17,33.17,0,0,1,33.16,0H157.84a33.17,33.17,0,0,1,0,66.33H33.16"/><path id="path18" class="cls-2" d="M33.16,63.7a30.54,30.54,0,0,1,0-61.07H157.84a30.54,30.54,0,0,1,0,61.07H33.16"/><path id="path20" class="cls-1" d="M147.85,48.2V13.89H157.9V30.64l6.63-7.77h11.28l-9.4,9.35,10.68,16h-12l-5.51-9.06-1.73,1.77V48.2Zm-11.27,0L136,45.78a13,13,0,0,1-4.16,2.51,14.44,14.44,0,0,1-5,.82A9.53,9.53,0,0,1,120.15,47a7.6,7.6,0,0,1-2.34-6,6.62,6.62,0,0,1,2.3-5.55q2.31-1.78,8.7-2.61l2.19-.25c3.18-.34,4.77-1.17,4.77-2.47a1.7,1.7,0,0,0-.88-1.59,5.65,5.65,0,0,0-2.75-.5,3.94,3.94,0,0,0-2.4.62,2.55,2.55,0,0,0-1,1.89H119a7.28,7.28,0,0,1,3.48-6.44Q125.86,22,132.49,22a26.54,26.54,0,0,1,5.75.58,12.12,12.12,0,0,1,4.11,1.57,6.92,6.92,0,0,1,2.51,2.73,10.53,10.53,0,0,1,.72,4.37V45.33a2.77,2.77,0,0,0,.28,1.25,2.29,2.29,0,0,0,.82.9v.72Zm-.93-11.3a35.6,35.6,0,0,1-3.83,1.19q-3.78,1-3.78,2.68a2.06,2.06,0,0,0,.75,1.68,3.27,3.27,0,0,0,2.11.6,5,5,0,0,0,3.67-1.16,5.11,5.11,0,0,0,1.15-3.71c0-.35,0-.63,0-.8a3.31,3.31,0,0,0-.06-.48ZM89.94,58.36V22.87h8.9v3.24a9.19,9.19,0,0,1,3.46-3A10.9,10.9,0,0,1,107,22.2a9.82,9.82,0,0,1,8,3.69,14.77,14.77,0,0,1,3,9.71q0,6.13-3,9.8a10.07,10.07,0,0,1-8.16,3.66,9.75,9.75,0,0,1-4.09-.79,8.25,8.25,0,0,1-3-2.44V58.36Zm18-22.77a7.79,7.79,0,0,0-1-4.42,3.47,3.47,0,0,0-3-1.45,3.69,3.69,0,0,0-3.22,1.41,7.69,7.69,0,0,0-1,4.46,7.31,7.31,0,0,0,1,4.3,4.07,4.07,0,0,0,6.2,0,7.28,7.28,0,0,0,1-4.29ZM77.57,48.2V13.89H87.71V48.2ZM75.44,22.87V48.2H66.25V44.47a11.86,11.86,0,0,1-3.94,3.33,10.91,10.91,0,0,1-4.92,1.08,10.46,10.46,0,0,1-4.11-.77,7.77,7.77,0,0,1-4.66-5.58A31.72,31.72,0,0,1,48.16,36V22.87H58.21V36A7.4,7.4,0,0,0,59,40a3,3,0,0,0,2.65,1.1,3.29,3.29,0,0,0,2.82-1.28,6.59,6.59,0,0,0,.94-3.87v-13ZM16.84,37.51h10.7a4.34,4.34,0,0,0,1.61,2.68,6,6,0,0,0,3.46.82,5.92,5.92,0,0,0,3-.67,2,2,0,0,0,1.1-1.83q0-1.86-4.62-3l-1.42-.35c-2.52-.65-4.54-1.24-6-1.78a14.62,14.62,0,0,1-3.27-1.51,9.2,9.2,0,0,1-3-3.4,10,10,0,0,1-1-4.52,9.49,9.49,0,0,1,3.83-8Q25.12,13,31.84,13t10.4,2.78a10.67,10.67,0,0,1,4.28,8H36.08a3.25,3.25,0,0,0-1.34-2.26,5.37,5.37,0,0,0-3.08-.75,4.75,4.75,0,0,0-2.63.58,2,2,0,0,0-.86,1.77c0,1.13,1.5,2.09,4.51,2.84l.6.17,2,.48c4,1,6.59,1.93,7.81,2.76a9.8,9.8,0,0,1,3.33,3.45,9.39,9.39,0,0,1,1,4.56c0,3.79-1.31,6.7-4,8.73s-6.43,3.06-11.36,3.06c-4.55,0-8.14-1-10.8-3.06a11.55,11.55,0,0,1-4.48-8.59h0"/></g></g></g></g></svg>