<svg xmlns="http://www.w3.org/2000/svg" width="18.58" height="25.22" viewBox="0 0 18.58 25.22"><defs><style>.cls-1{fill:#d71a21;}</style></defs><title>Asset 12</title><g id="Layer_2" data-name="Layer 2"><g id="Layer_1-2" data-name="Layer 1"><path class="cls-1" d="M18.36,11.16a18.11,18.11,0,0,0,.22-2.06A9.35,9.35,0,0,0,9.24,0H9.1A9.3,9.3,0,0,0,0,9.12a17.65,17.65,0,0,0,.22,2c1,5.33,5.7,10.18,7.69,12H5.26v2.06h8.1V23.16H10.64C12.51,21.43,17.27,16.57,18.36,11.16Zm-1.84-2c0,.26-.17,1.46-.2,1.63-.92,4.66-5.25,9.19-7,10.88-1.78-1.69-6.11-6.22-7-10.88v0c0-.17-.2-1.35-.2-1.57a7.3,7.3,0,0,1,7.27-7.1h.12A7.2,7.2,0,0,1,16.52,9.12Z"/><path class="cls-1" d="M9.29,4.45A4.67,4.67,0,1,0,14,9.11,4.66,4.66,0,0,0,9.29,4.45Zm0,8.27a3.61,3.61,0,1,1,3.6-3.61A3.62,3.62,0,0,1,9.29,12.72Z"/></g></g></svg>