<svg xmlns="http://www.w3.org/2000/svg" xmlns:xlink="http://www.w3.org/1999/xlink" width="18" height="32" viewBox="0 0 18 32"><defs><path id="746va" d="M1230.305 2367.444a2.062 2.062 0 0 1 0-2.87l11.938-12.2-12.64-12.918a2.061 2.061 0 0 1 0-2.87 1.957 1.957 0 0 1 2.809 0l13.342 13.635c.122.124.224.26.307.404.141.085.274.19.395.313a2.061 2.061 0 0 1 0 2.87l-13.342 13.636a1.956 1.956 0 0 1-2.809 0z"/></defs><g><g transform="translate(-1229 -2336)"><use fill="#b3b3b3" xlink:href="#746va"/></g></g></svg>