<svg xmlns="http://www.w3.org/2000/svg" width="15" height="25" viewBox="0 0 15 25"><defs><style>.cls-1{fill:#d71a21;}</style></defs><title>Asset 11</title><g id="Layer_2" data-name="Layer 2"><g id="Layer_1-2" data-name="Layer 1"><path class="cls-1" d="M13.17,0H1.83A1.84,1.84,0,0,0,0,1.83V23.17A1.84,1.84,0,0,0,1.83,25H13.17A1.84,1.84,0,0,0,15,23.17V1.83A1.84,1.84,0,0,0,13.17,0ZM1.83,1.7H13.17a.13.13,0,0,1,.13.13V5H1.7V1.83A.13.13,0,0,1,1.83,1.7ZM13.3,6V19H1.7V6Zm-.13,17.3H1.83a.13.13,0,0,1-.13-.13V20H13.3v3.17A.13.13,0,0,1,13.17,23.3Z"/><rect class="cls-1" x="6.25" y="21" width="2.5" height="1"/><rect class="cls-1" x="6.25" y="3" width="2.5" height="1"/></g></g></svg>