<svg xmlns="http://www.w3.org/2000/svg" width="14.75" height="15" viewBox="0 0 14.75 15"><defs><style>.cls-1{fill:#ccc;}</style></defs><title>Profile (2)</title><g id="Layer_2" data-name="Layer 2"><g id="Layer_1-2" data-name="Layer 1"><path id="Profile" class="cls-1" d="M13.32,15H1.72a2.09,2.09,0,0,1-1.5-1.1,2.18,2.18,0,0,1,0-1.9l.6-1.4A3.46,3.46,0,0,1,3.53,8.8c.5-.1.9-.2,1.29-.3.11,0,.3-.1.4-.1a5.29,5.29,0,0,1-1.6-3.8C3.62,2,5.32,0,7.42,0s3.8,2.1,3.8,4.6a4.71,4.71,0,0,1-1.6,3.7c.1,0,.2.1.3.1a5.85,5.85,0,0,0,1.3.2,3.61,3.61,0,0,1,2.7,1.8l.6,1.4a2.56,2.56,0,0,1,0,2.1C14.53,14.5,14,14.9,13.32,15ZM6.42,7.6a1.59,1.59,0,0,1,.4,1.2.76.76,0,0,1-.2.5,3,3,0,0,1-1.3.5l-1.5.3a2.09,2.09,0,0,0-1.6,1.1l-.6,1.4a1.27,1.27,0,0,0-.1.6,1.76,1.76,0,0,0,.4.5h11.6a1,1,0,0,0,.4-.5,1.7,1.7,0,0,0-.1-.7l-.6-1.4a2,2,0,0,0-1.6-1l-1.5-.3a3,3,0,0,1-1.3-.5c-.2-.1-.2-.3-.2-.5A2.45,2.45,0,0,1,9,7.6l.1-.1a3.63,3.63,0,0,0,1.2-2.8c0-1.8-1.1-3.3-2.5-3.3s-2.5,1.5-2.5,3.3a3.63,3.63,0,0,0,1.2,2.8C6.32,7.5,6.32,7.5,6.42,7.6Z"/></g></g></svg>