<svg xmlns="http://www.w3.org/2000/svg" xmlns:xlink="http://www.w3.org/1999/xlink" width="25" height="26" viewBox="0 0 25 26"><defs><path id="i6s7a" d="M251.977 149.95a1.005 1.005 0 0 1-.707.288c-.256 0-.512-.096-.708-.289l-5.754-5.674a10.516 10.516 0 0 1-6.298 2.08 10.517 10.517 0 0 1-7.431-3.035 10.22 10.22 0 0 1-3.078-7.325 10.22 10.22 0 0 1 3.078-7.326 10.516 10.516 0 0 1 7.43-3.034c2.808 0 5.447 1.077 7.432 3.034a10.221 10.221 0 0 1 3.078 7.326c0 2.596-.973 5.04-2.732 6.949l5.69 5.61a.977.977 0 0 1 0 1.395zm-13.467-5.568a8.513 8.513 0 0 0 6.015-2.457 8.273 8.273 0 0 0 2.492-5.93c0-2.24-.885-4.346-2.492-5.93a8.51 8.51 0 0 0-6.015-2.457c-2.273 0-4.41.872-6.016 2.456a8.313 8.313 0 0 0 0 11.861 8.515 8.515 0 0 0 6.016 2.457z"/></defs><g><g transform="translate(-228 -125)"><use fill="#fff" xlink:href="#i6s7a"/></g></g></svg>