<svg
										xmlns="http://www.w3.org/2000/svg"
										xmlns:xlink="http://www.w3.org/1999/xlink"
										width="25px" height="26px">

											<g>
									<g id="g10" transform="matrix(1.3333333,0,0,-1.3333333,0,368)">

	<g id="g12" transform="scale(0.1)">
		<path id="path16" fill="#FFFFFF" d="M793.4,2176.3c-137.3,0-248.7,111.4-248.7,248.7c0,137.3,111.4,248.7,248.7,248.7h935.1
			c137.3,0,248.7-111.4,248.7-248.7c0-137.3-111.4-248.7-248.7-248.7H793.4L793.4,2176.3"/>
		<path id="path18" fill="#ED1C24" d="M793.4,2196c-126.4,0-229,102.6-229,229c0,126.4,102.6,229,229,229h935.1
			c126.5,0,229-102.6,229-229c0-126.4-102.5-229-229-229H793.4L793.4,2196"/>
		<path id="path20" fill="#FFFFFF" d="M1653.6,2312.2v257.4h75.4V2444l49.7,58.2h84.6l-70.5-70.1l80.1-119.9h-89.7l-41.3,68
			l-12.9-13.3v-54.7H1653.6z M1569,2312.2l-4.7,18.2c-9.6-8.5-20.1-14.8-31.2-18.8c-11.2-4.1-23.8-6.1-37.7-6.1
			c-21.4,0-37.9,5.2-49.7,15.8c-11.7,10.6-17.5,25.4-17.5,44.7c0,18.7,5.8,32.6,17.3,41.6c11.5,8.9,33.3,15.5,65.3,19.6
			c4.1,0.6,9.5,1.2,16.4,1.9c23.9,2.6,35.8,8.8,35.8,18.5c0,5.4-2.2,9.4-6.6,11.9c-4.3,2.5-11.2,3.8-20.7,3.8
			c-7.8,0-13.8-1.6-18-4.7c-4.2-3-6.6-7.8-7.3-14.2h-73.6c0.4,21.3,9,37.4,26.1,48.3c17.1,10.9,42.2,16.3,75.4,16.3
			c15.6,0,29.9-1.4,43.2-4.4c13.2-2.9,23.5-6.8,30.8-11.7c8.9-6,15.2-12.9,18.8-20.5c3.6-7.6,5.4-18.6,5.4-32.7v-105.9
			c0-3.5,0.7-6.6,2.1-9.4c1.4-2.7,3.5-5,6.1-6.7v-5.4H1569L1569,2312.2z M1562,2397c-7.2-2.8-16.8-5.8-28.8-8.9
			c-18.9-5-28.3-11.8-28.3-20.1c0-5.4,1.8-9.5,5.6-12.6c3.7-3,9-4.5,15.8-4.5c12.6,0,21.7,2.9,27.5,8.7c5.8,5.8,8.6,15.1,8.6,27.8
			c0,2.7,0,4.7-0.1,6C1562.4,2394.7,1562.3,2395.9,1562,2397L1562,2397z M1219.2,2236.1v266.1h66.8v-24.3
			c7.4,10.1,16.1,17.5,26,22.2c9.9,4.7,21.7,7.1,35.4,7.1c24.5,0,44.4-9.2,59.7-27.7c15.2-18.5,22.9-42.8,22.9-72.8
			c0-30.7-7.6-55.2-22.7-73.5c-15.2-18.3-35.6-27.4-61.1-27.4c-11.8,0-22,2-30.7,6c-8.7,3.9-16.4,10.1-22.9,18.3v-94
			C1213.1,2236.1,1321.3,2236.1,1219.2,2236.1L1219.2,2236.1z M1354.5,2406.8c0,14.9-2.5,25.9-7.5,33.2c-5,7.2-12.6,10.9-22.9,10.9
			c-11,0-19.1-3.5-24.2-10.6c-5.1-7-7.6-18.2-7.6-33.5c0-14.4,2.6-25.1,7.7-32.3c5.2-7.2,13-10.7,23.3-10.7
			c10.2,0,17.9,3.6,23.2,10.9C1351.9,2381.9,1354.5,2392.6,1354.5,2406.8L1354.5,2406.8z M1126.4,2312.2v257.4h76v-257.4H1126.4z
			 M1110.4,2502.2v-190h-68.9v28c-8.8-11.2-18.7-19.5-29.5-24.9c-10.9-5.4-23.2-8.1-36.9-8.1c-11.5,0-21.8,1.9-30.8,5.8
			c-9.1,3.8-16.8,9.5-23,17.1c-5.6,6.7-9.5,15-11.8,24.7c-2.3,9.7-3.5,26.1-3.5,49v98.4h75.4v-98.1c0-14.4,1.9-24.5,5.8-30
			c3.8-5.6,10.4-8.3,19.9-8.3c9.4,0,16.4,3.2,21.1,9.6c4.7,6.4,7.1,16.1,7.1,29v97.7H1110.4L1110.4,2502.2z M671,2392.5h80.3
			c2.2-9.3,6.2-16,12-20.1c5.8-4.1,14.5-6.1,26-6.1c9.6,0,17.2,1.7,22.7,5c5.5,3.3,8.3,7.9,8.3,13.7c0,9.3-11.6,16.9-34.7,22.7
			c-4.6,1.1-8.2,2-10.7,2.6c-18.9,4.9-34.1,9.3-45.2,13.4c-11.2,4-19.4,7.8-24.5,11.3c-9.9,7.1-17.3,15.6-22.2,25.5
			c-4.9,9.9-7.4,21.2-7.4,33.9c0,25.5,9.6,45.6,28.8,60.1c19.2,14.6,45.6,21.8,79.2,21.8c33,0,59.1-7,78-20.9
			c18.9-14,29.6-33.9,32.1-59.9h-78.3c-1.2,7.6-4.6,13.2-10,16.9c-5.4,3.8-13.2,5.6-23.2,5.6c-8.8,0-15.4-1.4-19.7-4.4
			c-4.3-2.9-6.4-7.3-6.4-13.3c0-8.5,11.3-15.6,33.8-21.3c2-0.6,3.5-1,4.5-1.3c3.3-0.8,8.2-2,14.8-3.6c29.9-7.6,49.4-14.4,58.6-20.6
			c11.4-7.6,19.7-16.2,24.9-25.9c5.2-9.7,7.9-21.1,7.9-34.2c0-28.4-9.9-50.2-29.7-65.5c-19.8-15.3-48.2-22.9-85.2-22.9
			c-34.1,0-61.1,7.6-81,22.9C684.6,2343.3,673.4,2364.7,671,2392.5L671,2392.5"/>
	</g>
</g>
</g>
								</svg>
