<?xml version="1.0" encoding="utf-8"?>
<!-- Generator: Adobe Illustrator 22.1.0, SVG Export Plug-In . SVG Version: 6.00 Build 0)  -->
<svg version="1.1" id="Layer_1" xmlns="http://www.w3.org/2000/svg" xmlns:xlink="http://www.w3.org/1999/xlink" x="0px" y="0px"
	 width="69px" height="534px" viewBox="0 0 69 534" enable-background="new 0 0 69 534" xml:space="preserve">
<g>
	<g>
		<path fill="#999999" d="M25.5,158.4H8.9c-1.6,0-2.8-1.3-2.8-2.8v-8.7c0-1.6,1.3-2.8,2.8-2.8h1.5l1.3-2.2c0.5-0.9,1.4-1.4,2.4-1.4
			h6.2c1,0,1.9,0.5,2.4,1.4l1.3,2.2h1.5c1.6,0,2.8,1.3,2.8,2.8v8.7C28.3,157.2,27,158.4,25.5,158.4z M8.9,145.7
			c-0.7,0-1.2,0.5-1.2,1.2v8.7c0,0.7,0.5,1.2,1.2,1.2h16.6c0.7,0,1.2-0.5,1.2-1.2v-8.7c0-0.7-0.5-1.2-1.2-1.2H23l-1.7-3
			c-0.2-0.4-0.6-0.6-1-0.6h-6.2c-0.4,0-0.8,0.2-1,0.6l-1.7,3H8.9z M17.2,156.6c-3.1,0-5.7-2.5-5.7-5.7c0-3.1,2.5-5.7,5.7-5.7
			s5.7,2.5,5.7,5.7C22.8,154.1,20.3,156.6,17.2,156.6z M17.2,146.9c-2.2,0-4,1.8-4,4c0,2.2,1.8,4,4,4s4-1.8,4-4
			C21.2,148.7,19.4,146.9,17.2,146.9z"/>
	</g>
	<g>
		<path fill="#999999" d="M19,144.5h-3.6c-0.4,0-0.8-0.4-0.8-0.8c0-0.4,0.4-0.8,0.8-0.8H19c0.4,0,0.8,0.4,0.8,0.8
			C19.8,144.1,19.5,144.5,19,144.5z"/>
	</g>
	<g>
		<path fill="#999999" d="M17.2,154.2c-1.8,0-3.2-1.5-3.2-3.2c0-0.5,0.1-0.9,0.3-1.4l1.5,0.7c-0.1,0.2-0.2,0.5-0.2,0.7
			c0,0.9,0.7,1.6,1.6,1.6c0.9,0,1.6-0.7,1.6-1.6c0-0.9-0.7-1.6-1.6-1.6c-0.2,0-0.4,0-0.6,0.1l-0.6-1.5c0.4-0.1,0.7-0.2,1.1-0.2
			c1.8,0,3.2,1.5,3.2,3.2C20.4,152.7,19,154.2,17.2,154.2z"/>
	</g>
</g>
<g>
	<g>
		<path fill="#999999" d="M22.7,32.6H11.7c-1.4,0-2.5-1.1-2.5-2.5V12.5c0-1.4,1.1-2.5,2.5-2.5h10.9c1.4,0,2.5,1.1,2.5,2.5v17.7
			C25.1,31.5,24,32.6,22.7,32.6z M11.7,11.6c-0.4,0-0.8,0.4-0.8,0.8v17.7c0,0.4,0.4,0.8,0.8,0.8h10.9c0.4,0,0.8-0.4,0.8-0.8V12.5
			c0-0.4-0.4-0.8-0.8-0.8H11.7z M22.6,28.3H11.7V13.7h10.9V28.3z M13.4,26.7H21V15.3h-7.6V26.7z"/>
	</g>
	<g>
		<path fill="#999999" d="M17.2,30.8c-0.6,0-1.2-0.5-1.2-1.2s0.5-1.2,1.2-1.2s1.2,0.5,1.2,1.2S17.8,30.8,17.2,30.8z M17.2,29.2
			c-0.3,0-0.5,0.2-0.5,0.5s0.2,0.5,0.5,0.5s0.5-0.2,0.5-0.5S17.5,29.2,17.2,29.2z"/>
	</g>
	<g>
		<path fill="#999999" d="M17.2,13.6c-0.5,0-0.9-0.4-0.9-0.9s0.4-0.9,0.9-0.9c0.5,0,0.9,0.4,0.9,0.9S17.7,13.6,17.2,13.6z M17.2,12
			c-0.4,0-0.7,0.3-0.7,0.7c0,0.4,0.3,0.7,0.7,0.7c0.4,0,0.7-0.3,0.7-0.7C17.9,12.3,17.6,12,17.2,12z"/>
	</g>
</g>
<g>
	<path fill="#999999" d="M27.1,94.4H20l-0.7-1.8h-4.2l-0.7,1.8H7.2c-0.5,0-0.9-0.2-1.1-0.6c-0.2-0.4-0.2-0.9,0-1.3l1.8-3.2V78.1
		c0-0.9,0.8-1.7,1.7-1.7h15.2c0.9,0,1.7,0.8,1.7,1.7v11.2l1.8,3.2c0.2,0.4,0.2,0.9,0,1.3C28,94.1,27.6,94.4,27.1,94.4z M21.1,92.8
		h5.6l-1.5-2.5H9.1l-1.5,2.5h5.6L14,91h6.3L21.1,92.8z M9.5,88.7h15.5V78.1c0-0.1-0.1-0.1-0.1-0.1H9.6c-0.1,0-0.1,0.1-0.1,0.1V88.7z
		"/>
</g>
<g>
	<path fill="#999999" d="M22.4,62.3H12c-0.5,0-0.9-0.4-0.9-0.9c0-0.5,0.4-0.9,0.9-0.9h4.3v-1.5H8.2c-1.3,0-2.3-1-2.3-2.3V46.6
		c0-1.3,1-2.3,2.3-2.3h17.9c1.3,0,2.3,1,2.3,2.3v10.1c0,1.3-1,2.3-2.3,2.3h-8.1v1.5h4.3c0.5,0,0.9,0.4,0.9,0.9
		C23.3,62,22.9,62.3,22.4,62.3z M17.2,57.3h9c0.3,0,0.6-0.3,0.6-0.6V46.6c0-0.3-0.3-0.6-0.6-0.6H8.2c-0.3,0-0.6,0.3-0.6,0.6v10.1
		c0,0.3,0.3,0.6,0.6,0.6H17.2z M25,56.5H9.4c-0.5,0-0.9-0.4-0.9-0.9v-7.8c0-0.5,0.4-0.9,0.9-0.9H25c0.5,0,0.9,0.4,0.9,0.9v7.8
		C25.9,56.1,25.5,56.5,25,56.5z M10.3,54.8h13.9v-6.1H10.3V54.8z"/>
</g>
<g>
	<path fill="#999999" d="M30.1,115.4l0-0.4c-0.2-3.7-3.3-6.6-7-6.6c-1.7,0-3.3,0.6-4.5,1.7h-2.8c-1.3-1.1-2.8-1.7-4.5-1.7
		c-3.7,0-6.8,2.9-7,6.6c0,0.6,0.4,1.1,1,1.1c0.6,0,1.1-0.4,1.1-1c0.1-2.6,2.3-4.6,4.9-4.6c1.3,0,2.5,0.5,3.4,1.4l0.3,0.3h4.5
		l0.3-0.3c0.9-0.9,2.1-1.4,3.4-1.4c2.6,0,4.7,2,4.9,4.6l0,7.8c0,0.8-0.6,1.4-1.4,1.4c-0.8,0-1.1-0.4-1.3-0.7l-2.1-3.4l-0.5,0
		c-1.3-0.1-2.6-0.8-3.4-1.9L19,118h-3.6l-0.3,0.4c-0.8,1.1-2.1,1.7-3.4,1.9l-0.5,0l-2.1,3.4c-0.3,0.4-0.7,0.7-1.2,0.7
		c-0.8,0-1.5-0.5-1.5-1.4c0-0.6-0.5-1.1-1.1-1.1s-1.1,0.5-1.1,1.1c0,2,1.6,3.5,3.6,3.5c1.2,0,2.3-0.6,3-1.7l1.5-2.5
		c1.5-0.3,3-1,4-2.2H18c1,1.1,2.5,1.9,4,2.2l1.5,2.5c0.7,1.1,1.8,1.7,3.1,1.7c1.9,0,3.5-1.6,3.5-3.5L30.1,115.4z"/>
	<path fill="#999999" d="M10.9,110.8c-0.6,0-1.1,0.5-1.1,1.1v2.1H7.7c-0.6,0-1.1,0.5-1.1,1.1s0.5,1.1,1.1,1.1h2.1v2.1
		c0,0.6,0.5,1.1,1.1,1.1c0.6,0,1.1-0.5,1.1-1.1v-2.1H14c0.6,0,1.1-0.5,1.1-1.1S14.6,114,14,114h-2.1v-2.1
		C11.9,111.3,11.5,110.8,10.9,110.8z"/>
	<path fill="#999999" d="M26.9,115.5c0-0.9-0.7-1.4-1.5-1.5c-0.8,0-1.5,0.7-1.5,1.5s0.7,1.5,1.5,1.5
		C26.3,116.9,26.9,116.3,26.9,115.5z M25.4,116.1c-0.3,0-0.6-0.4-0.6-0.7c0-0.4,0.3-0.7,0.7-0.7s0.7,0.3,0.7,0.7
		C26.1,115.8,25.8,116.1,25.4,116.1C25.4,116.1,25.4,116.1,25.4,116.1z"/>
	<path fill="#999999" d="M19.3,115.5c0,0.8,0.7,1.5,1.5,1.5s1.5-0.7,1.5-1.5c0-0.9-0.7-1.4-1.5-1.5C20,114,19.3,114.7,19.3,115.5z
		 M21.4,115.5c0,0.4-0.3,0.7-0.7,0.7c0,0,0,0,0,0c-0.4,0-0.6-0.4-0.6-0.7c0-0.4,0.3-0.7,0.7-0.7C21.1,114.8,21.4,115.1,21.4,115.5z"
		/>
	<path fill="#999999" d="M23.1,111.6c-0.8,0-1.5,0.7-1.5,1.5s0.7,1.5,1.5,1.5c0.8,0,1.5-0.7,1.5-1.5
		C24.6,112.2,23.8,111.7,23.1,111.6z M23.1,113.7C23.1,113.7,23.1,113.7,23.1,113.7c-0.3,0-0.6-0.4-0.6-0.7c0-0.4,0.3-0.7,0.7-0.7
		c0.4,0,0.7,0.3,0.7,0.7C23.8,113.5,23.5,113.7,23.1,113.7z"/>
	<path fill="#999999" d="M23.1,116.4c-0.8,0-1.5,0.7-1.5,1.5c0,0.8,0.7,1.5,1.5,1.5c0.8,0,1.5-0.7,1.5-1.5
		C24.6,116.9,23.8,116.4,23.1,116.4z M23.1,118.5c-0.4,0-0.6-0.4-0.6-0.7c0-0.4,0.3-0.7,0.7-0.7c0.4,0,0.7,0.3,0.7,0.7
		C23.8,118.2,23.5,118.5,23.1,118.5z"/>
</g>
<g>
	<path fill="#999999" d="M10.2,441.1c-0.7,0-1.3,0.6-1.3,1.3s0.6,1.3,1.3,1.3c0.7,0,1.3-0.6,1.3-1.3S10.9,441.1,10.2,441.1z
		 M10.2,443c-0.4,0-0.7-0.3-0.7-0.7c0-0.4,0.3-0.7,0.7-0.7c0.4,0,0.7,0.3,0.7,0.7C10.9,442.7,10.6,443,10.2,443z"/>
	<path fill="#999999" d="M24.1,441.1c-0.7,0-1.3,0.6-1.3,1.3s0.6,1.3,1.3,1.3c0.7,0,1.3-0.6,1.3-1.3S24.8,441.1,24.1,441.1z
		 M24.1,443c-0.4,0-0.7-0.3-0.7-0.7c0-0.4,0.3-0.7,0.7-0.7c0.4,0,0.7,0.3,0.7,0.7C24.8,442.7,24.5,443,24.1,443z"/>
	<path fill="#999999" d="M31.3,436.9c0-0.1,0-0.1,0-0.2v-0.5l0-0.1c-0.1-1.3-1.2-2.4-2.6-2.4h-3.8l-3.1-3.6c-0.8-1-1.9-1.5-3.2-1.5
		h-5.8c-1.3,0-2.4,0.5-3.2,1.5l-3.1,3.6H5.6c-1.3,0-2.4,1-2.6,2.3l0,5.5c0,1.2,0.9,2.1,2.1,2.1h1c0.6,1.7,2.2,2.9,4,2.9
		c1.9,0,3.5-1.2,4-2.9h5.8c0.6,1.7,2.2,2.9,4,2.9c1.9,0,3.5-1.2,4-2.9h1c1.2,0,2.1-0.9,2.1-2.1v-4.5C31.3,437,31.3,437,31.3,436.9z
		 M16.7,430.6h1.9c0.7,0,1.3,0.3,1.7,0.8l2,2.3h-5.7V430.6z M11.1,431.4c0.4-0.5,1-0.8,1.7-0.8h1.9v3.2H9.1L11.1,431.4z M10.2,444.7
		c-1.3,0-2.3-1-2.3-2.3c0-1.3,1-2.3,2.3-2.3s2.3,1,2.3,2.3C12.6,443.7,11.5,444.7,10.2,444.7z M24.1,444.7c-1.3,0-2.3-1-2.3-2.3
		c0-1.3,1-2.3,2.3-2.3s2.3,1,2.3,2.3C26.4,443.7,25.4,444.7,24.1,444.7z M29.2,441.8h-0.8c-0.3-2.1-2.1-3.6-4.2-3.6
		c-2.1,0-3.9,1.6-4.2,3.6h-5.5c-0.3-2.1-2.1-3.6-4.2-3.6c-2.1,0-3.9,1.6-4.2,3.6H5.2c-0.1,0-0.2-0.1-0.2-0.1l0-3.7h0.5
		c0.5,0,1-0.4,1-1s-0.4-1-1-1H5.2c0.1-0.1,0.3-0.2,0.5-0.2h23.1c0.2,0,0.4,0.1,0.5,0.2h-1.1c-0.5,0-1,0.4-1,1s0.4,1,1,1h1.2v3.7
		C29.3,441.7,29.3,441.8,29.2,441.8z"/>
	<rect x="16.2" y="436.2" fill="#999999" width="1.9" height="1.5"/>
	<rect x="13.3" y="436.2" fill="#999999" width="1.9" height="1.5"/>
</g>
<g>
	<path fill="#999999" d="M25,366.7C25,366.7,25,366.7,25,366.7c-0.6-1.8-2.3-2.8-4.1-2.6c-0.4-1.7-1.9-3.1-3.8-3.1
		c-1.8,0-3.4,1.3-3.8,3.1c-0.7-0.1-1.5,0.1-2.2,0.4c-0.9,0.5-1.6,1.3-1.9,2.2c-0.6,1.8,0.2,3.6,1.7,4.5c-0.7,1.6-0.2,3.6,1.2,4.7
		c1.5,1.1,3.5,0.9,4.8-0.3c0.7,0.7,1.6,1,2.6,1c0.8,0,1.6-0.2,2.3-0.7c1.5-1.1,2-3.1,1.2-4.7C24.8,370.4,25.6,368.5,25,366.7z
		 M22,369.9c0,0-0.1,0-0.1,0l-0.1,0c-0.3,0.1-0.6,0.3-0.6,0.6c-0.1,0.3,0,0.6,0.2,0.9l0.1,0.1c0,0,0.1,0.1,0.1,0.1
		c0.7,0.9,0.5,2.3-0.5,3c-0.9,0.7-2.3,0.5-3-0.5c0,0,0-0.1-0.1-0.1l-0.1-0.1c-0.2-0.3-0.4-0.4-0.8-0.4s-0.6,0.2-0.8,0.4l-0.1,0.1
		c0,0,0,0.1-0.1,0.1c-0.7,0.9-2,1.2-3,0.5c-0.9-0.7-1.2-2-0.5-3c0,0,0.1-0.1,0.1-0.1l0.1-0.1c0.2-0.2,0.3-0.6,0.2-0.9
		c-0.1-0.3-0.3-0.5-0.6-0.6l-0.1,0c0,0-0.1,0-0.1,0c-1.1-0.4-1.7-1.6-1.4-2.7c0.2-0.5,0.5-1,1.1-1.2c0.5-0.3,1.1-0.3,1.6-0.1
		c0,0,0.1,0,0.1,0.1l0.1,0c0.3,0.1,0.6,0.1,0.9-0.1c0.3-0.2,0.4-0.5,0.4-0.8l0-0.1c0,0,0-0.1,0-0.1c0-1.2,0.9-2.1,2.1-2.1
		c1.2,0,2.1,0.9,2.1,2.1c0,0,0,0.1,0,0.1l0,0.1c0,0.3,0.1,0.6,0.4,0.8c0.3,0.2,0.6,0.2,0.9,0.1l0.1,0c0,0,0.1,0,0.1,0
		c1.1-0.4,2.3,0.2,2.7,1.4C23.7,368.4,23.1,369.6,22,369.9z"/>
	<path fill="#999999" d="M17.2,365.9c-1.8,0-3.3,1.5-3.3,3.3c0,1.8,1.5,3.3,3.3,3.3s3.3-1.5,3.3-3.3C20.5,367.4,19,365.9,17.2,365.9
		z M17.2,370.9c-0.9,0-1.6-0.7-1.6-1.6c0-0.9,0.7-1.6,1.6-1.6c0.9,0,1.6,0.7,1.6,1.6C18.8,370.1,18.1,370.9,17.2,370.9z"/>
	<path fill="#999999" d="M23,377.9h-5v-1.1h-1.7v1.1h-5c-0.5,0-0.9,0.4-0.9,0.9c0,0.5,0.4,0.9,0.9,0.9h0.5l0.6,5.7
		c0,0.4,0.4,0.8,0.9,0.8h7.8c0.4,0,0.8-0.3,0.9-0.8l0.6-5.7H23c0.5,0,0.9-0.4,0.9-0.9C23.9,378.3,23.5,377.9,23,377.9z M20.3,384.4
		h-6.2l-0.5-4.8h7.2L20.3,384.4z"/>
</g>
<g>
	<path fill="#999999" d="M25.2,476.2L25.2,476.2c-0.4-0.3-0.9-0.6-1.3-0.9c0,0,0.1,0,0.1,0c0.9-0.3,2.8-0.9,2.9-2.9
		c0-1.6-1.2-3-2.9-3.1c-0.3,0-0.7-0.1-1-0.1c1-1.2,1.6-2.6,1.6-4.1c0-0.2,0-0.4,0-0.6c1.2-0.9,1.7-2.4,1.4-3.9
		c-0.3-1.3-1.4-2.4-2.6-2.7c-1.4-0.4-2.7,0-3.7,0.9c-1.5-0.5-3.2-0.5-4.8,0c-1-0.9-2.3-1.3-3.7-0.9c-1.3,0.4-2.3,1.4-2.6,2.7
		c-0.4,1.5,0.2,3,1.4,3.9c0,0.2,0,0.4,0,0.6c0,1.5,0.6,2.9,1.6,4.1c-0.4,0-0.7,0-1,0.1c-1.6,0.1-2.9,1.5-2.9,3c0,1.6,1.5,2.7,2.8,3
		l0.1,0c0,0,0,0,0,0c-0.4,0.3-0.8,0.6-1.2,0.9c-1.3,1-1.7,2.8-0.8,4.1c0.5,0.7,1.2,1.2,2,1.3c0.8,0.1,1.7-0.1,2.3-0.6
		c0.8-0.6,1.5-1.1,2.6-1.4c1.2,0.5,2.5,0.5,3.7,0c1.2,0.2,1.8,0.7,2.6,1.4c0.5,0.4,1.2,0.6,1.8,0.6c1.1,0,2.1-0.6,2.6-1.5
		C26.9,478.8,26.5,477.1,25.2,476.2z M24.5,479.2c-0.2,0.4-0.6,0.6-1,0.6c-0.3,0-0.5-0.1-0.7-0.2c-1-0.8-1.9-1.5-3.7-1.8l-0.6,0.1
		c-0.8,0.4-1.8,0.4-2.6,0l-0.6-0.1c-1.8,0.3-2.7,1-3.7,1.8c-0.3,0.2-0.6,0.3-0.9,0.2c-0.3-0.1-0.6-0.2-0.8-0.5
		c-0.3-0.5-0.2-1.2,0.4-1.6c0.9-0.7,1.9-1.4,3.1-2l-0.2-1.8c-0.8-0.2-1.9-0.4-2.5-0.5l-0.1,0c-0.6-0.1-1.3-0.6-1.3-1.2
		c0-0.6,0.5-1.1,1.2-1.2c0.9-0.1,1.9-0.1,2.9-0.2c0.5,0,0.9-0.3,1-0.8c0.1-0.5-0.1-0.9-0.5-1.2c-1.4-0.9-2.3-2.4-2.3-3.9
		c0-0.1,0-0.3,0-0.4c0.1-0.6-0.2-1.3-0.7-1.6c-0.6-0.5-0.9-1.2-0.7-2c0.2-0.7,0.7-1.2,1.3-1.4c0.2-0.1,0.4-0.1,0.5-0.1
		c0.6,0,1.2,0.3,1.6,0.8l1.1,0.3c1.5-0.6,3.2-0.6,4.6,0l1.1-0.3c0.5-0.7,1.3-1,2.2-0.8c0.6,0.2,1.2,0.7,1.3,1.4
		c0.2,0.8-0.1,1.5-0.7,2c-0.5,0.4-0.8,1-0.7,1.6c0,0.1,0,0.3,0,0.4c0,1.5-0.9,3-2.3,3.9c-0.4,0.3-0.6,0.7-0.5,1.2
		c0.1,0.5,0.5,0.8,1,0.8c1.1,0,2,0.1,2.9,0.2c0.7,0.1,1.2,0.6,1.2,1.2c0,0.4-0.3,0.7-1.6,1.2c-0.2,0.1-0.5,0.2-0.8,0.2
		c-0.5,0.2-1.3,0.4-1.5,0.4l-0.1,1.8c1.3,0.4,2.1,1,3,1.7C24.6,478,24.8,478.7,24.5,479.2z"/>
	<path fill="#999999" d="M21.1,465.3c0.5,0,0.9-0.4,0.9-0.9v-0.8c0-0.5-0.4-0.9-0.9-0.9s-0.9,0.4-0.9,0.9v0.8
		C20.2,464.9,20.6,465.3,21.1,465.3z"/>
	<path fill="#999999" d="M14.4,463.6c0-0.5-0.4-0.9-0.9-0.9s-0.9,0.4-0.9,0.9v0.8c0,0.5,0.4,0.9,0.9,0.9s0.9-0.4,0.9-0.9V463.6z"/>
	<path fill="#999999" d="M16.1,468.4c0.4,0,0.8-0.1,1.1-0.3c0.3,0.2,0.7,0.3,1.1,0.3c0.7,0,1.3-0.3,1.6-0.9c0.3-0.4,0.2-1-0.2-1.3
		c-0.4-0.3-1-0.2-1.3,0.2c0,0,0,0.1-0.1,0.1c-0.1,0-0.1-0.1-0.1-0.1c0-0.3-0.2-0.6-0.4-0.8c0.2-0.2,0.4-0.4,0.4-0.7v-0.5
		c0-0.5-0.4-0.9-0.9-0.9s-0.9,0.4-0.9,0.9v0.5c0,0.3,0.2,0.6,0.4,0.7c-0.2,0.2-0.4,0.4-0.4,0.7c0,0.1-0.1,0.1-0.1,0.1
		c-0.1,0-0.1,0-0.1-0.1c-0.3-0.4-0.9-0.5-1.3-0.2c-0.4,0.3-0.5,0.9-0.2,1.3C14.8,468,15.5,468.4,16.1,468.4z"/>
	<path fill="#999999" d="M17.2,470.5c-1.7,0-3,1.5-3,3.4s1.4,3.4,3,3.4c1.7,0,3-1.5,3-3.4S18.9,470.5,17.2,470.5z M17.2,475.6
		c-0.6,0-1.2-0.7-1.2-1.6c0-0.9,0.5-1.6,1.2-1.6c0.6,0,1.2,0.7,1.2,1.6C18.4,474.9,17.8,475.6,17.2,475.6z"/>
</g>
<g>
	<path fill="#999999" d="M24.7,233.5h-15c-1,0-1.9,0.8-1.9,1.9v20.2c0,1,0.8,1.9,1.9,1.9h15c1,0,1.9-0.8,1.9-1.9v-20.2
		C26.6,234.3,25.7,233.5,24.7,233.5z M15,255.7H9.7c-0.1,0-0.1-0.1-0.1-0.1v-20.2c0-0.1,0.1-0.1,0.1-0.1H15V255.7z M24.8,255.6
		c0,0.1-0.1,0.1-0.1,0.1h-7.9v-20.5h7.9c0.1,0,0.1,0.1,0.1,0.1V255.6z"/>
	<path fill="#999999" d="M23.8,243.6c-0.2-0.4-0.8-0.6-1.2-0.3l-0.6,0.4v-0.7c0-0.5-0.4-0.9-0.9-0.9c-0.5,0-0.9,0.4-0.9,0.9v0.7
		l-0.6-0.4c-0.4-0.2-1-0.1-1.2,0.3c-0.2,0.4-0.1,1,0.3,1.2l0.6,0.4l-0.6,0.4c-0.4,0.2-0.6,0.8-0.3,1.2c0.2,0.3,0.5,0.4,0.8,0.4
		c0.1,0,0.3,0,0.4-0.1l0.6-0.4v0.7c0,0.5,0.4,0.9,0.9,0.9c0.5,0,0.9-0.4,0.9-0.9v-0.7l0.6,0.4c0.1,0.1,0.3,0.1,0.4,0.1
		c0.3,0,0.6-0.2,0.8-0.4c0.2-0.4,0.1-1-0.3-1.2l-0.6-0.4l0.6-0.4C23.9,244.5,24.1,244,23.8,243.6z"/>
	<path fill="#999999" d="M12.6,248.3c0.5,0,0.9-0.4,0.9-0.9v-4.6c0-0.5-0.4-0.9-0.9-0.9c-0.5,0-0.9,0.4-0.9,0.9v4.6
		C11.7,247.9,12.1,248.3,12.6,248.3z"/>
</g>
<g>
	<path fill="#999999" d="M25.1,220.5c1-1.1,1.6-2.6,1.6-4.2c0-0.4,0-0.8-0.1-1.2c-0.1-0.6-0.7-1-1.3-1h-9.8c-0.6,0-1.2,0.4-1.3,1.1
		c-0.1,0.4-0.1,0.8-0.1,1.2c0,1.5,0.6,3,1.6,4.1H15c-0.6,0-1-0.5-1-1v-9.2h10.7c0.8,0,1.5-0.7,1.5-1.5V205c0-0.8-0.7-1.5-1.5-1.5
		H9.2c-0.8,0-1.5,0.7-1.5,1.5v4.5c0,0,0,0,0,0v12.4c0,0.8,0.7,1.5,1.5,1.5h15.6c0.7,0,1.3-0.6,1.3-1.3v-0.4
		C26.1,221.1,25.7,220.6,25.1,220.5z M9.1,205c0-0.1,0.1-0.1,0.1-0.1h15.3c0.1,0,0.1,0.1,0.1,0.1v3.7c0,0.1-0.1,0.1-0.1,0.1H9.1V205
		z M22.4,221.3c0.1,0.3,0.4,0.5,0.7,0.5h1.6v0.2H9.2c-0.1,0-0.1-0.1-0.1-0.1v-11.7h3.4v9.2c0,1.4,1.1,2.5,2.5,2.5h2.7
		c0.3,0,0.6-0.2,0.7-0.5c0.1-0.3-0.1-0.6-0.3-0.8c-1.5-0.9-2.5-2.5-2.5-4.2c0-0.3,0-0.5,0.1-0.8h9.6c0,0.3,0.1,0.5,0.1,0.8
		c0,1.7-0.9,3.4-2.5,4.2C22.5,220.7,22.4,221,22.4,221.3z"/>
	<path fill="#999999" d="M20.6,213.9c0.4,0,0.7-0.3,0.7-0.7v-0.9h1.4c0.4,0,0.7-0.3,0.7-0.7c0-0.4-0.3-0.7-0.7-0.7h-4.2
		c-0.4,0-0.7,0.3-0.7,0.7c0,0.4,0.3,0.7,0.7,0.7h1.4v0.9C19.9,213.6,20.3,213.9,20.6,213.9z"/>
	<path fill="#999999" d="M23,205.6c-0.5,0-1,0.4-1,1c0,0.5,0.4,1,1,1s1-0.4,1-1C24,206,23.6,205.6,23,205.6z M23,207
		c-0.2,0-0.4-0.2-0.4-0.4c0-0.2,0.2-0.4,0.4-0.4c0.2,0,0.4,0.2,0.4,0.4C23.5,206.8,23.3,207,23,207z"/>
</g>
<g>
	<path fill="#999999" d="M23.8,171.4H10.6c-0.8,0-1.5,0.7-1.5,1.5v16.9c0,0.8,0.7,1.5,1.5,1.5h13.2c0.8,0,1.5-0.7,1.5-1.5V173
		C25.3,172.1,24.6,171.4,23.8,171.4z M23.9,189.9c0,0.1-0.1,0.1-0.1,0.1H10.6c-0.1,0-0.1-0.1-0.1-0.1v-13.3h13.4V189.9z M23.9,175.2
		H10.5V173c0-0.1,0.1-0.1,0.1-0.1h13.2c0.1,0,0.1,0,0.1,0.1V175.2z"/>
	<path fill="#999999" d="M22.8,173c-0.5,0-1,0.4-1,1c0,0.5,0.4,1,1,1c0.5,0,1-0.4,1-1C23.7,173.5,23.3,173,22.8,173z M22.8,174.4
		c-0.2,0-0.4-0.2-0.4-0.4c0-0.2,0.2-0.4,0.4-0.4c0.2,0,0.4,0.2,0.4,0.4C23.2,174.2,23,174.4,22.8,174.4z"/>
	<path fill="#999999" d="M20.1,173c-0.5,0-1,0.4-1,1c0,0.5,0.4,1,1,1c0.5,0,1-0.4,1-1C21.1,173.5,20.7,173,20.1,173z M20.1,174.4
		c-0.2,0-0.4-0.2-0.4-0.4c0-0.2,0.2-0.4,0.4-0.4c0.2,0,0.4,0.2,0.4,0.4C20.6,174.2,20.4,174.4,20.1,174.4z"/>
	<path fill="#999999" d="M17.5,173c-0.5,0-1,0.4-1,1c0,0.5,0.4,1,1,1s1-0.4,1-1C18.4,173.5,18,173,17.5,173z M17.5,174.4
		c-0.2,0-0.4-0.2-0.4-0.4c0-0.2,0.2-0.4,0.4-0.4c0.2,0,0.4,0.2,0.4,0.4C17.9,174.2,17.7,174.4,17.5,174.4z"/>
	<path fill="#999999" d="M11.6,173c-0.5,0-1,0.4-1,1c0,0.5,0.4,1,1,1s1-0.4,1-1C12.6,173.5,12.2,173,11.6,173z M11.6,174.4
		c-0.2,0-0.4-0.2-0.4-0.4c0-0.2,0.2-0.4,0.4-0.4c0.2,0,0.4,0.2,0.4,0.4C12.1,174.2,11.9,174.4,11.6,174.4z"/>
	<path fill="#999999" d="M17.1,189.3c3.3,0,6-2.7,6-6c0-3.3-2.7-6-6-6s-6,2.7-6,6C11,186.6,13.7,189.3,17.1,189.3z M17.1,178.7
		c2.5,0,4.6,2.1,4.6,4.6c0,2.5-2.1,4.6-4.6,4.6c-2.5,0-4.6-2.1-4.6-4.6C12.5,180.8,14.5,178.7,17.1,178.7z"/>
</g>
<path fill="#999999" d="M27.2,406.9l-3.7-10c-0.3-0.8-1.1-1.4-1.9-1.4h-8.6c-0.9,0-1.6,0.5-1.9,1.3l-3.7,10c-0.2,0.5-0.1,1,0.2,1.5
	c0.3,0.4,0.8,0.7,1.3,0.7h7.5v4.6h-1.9v1.9h5.8v-1.9h-1.9v-4.6h7.5c0.5,0,1-0.3,1.3-0.7C27.3,408,27.4,407.4,27.2,406.9z M9.2,407.2
	l3.6-9.5c0-0.1,0.1-0.1,0.1-0.1h8.6c0.1,0,0.1,0,0.1,0.1l3.6,9.5H9.2z"/>
<g>
	<path fill="#999999" d="M25.4,273.3c0,0-0.1,0-0.1,0h-0.5l-0.3-0.3c-0.8-1-1.9-1.6-3.2-2c0,0,0,0,0,0c0-1.4-1.1-2.5-2.5-2.5
		c-1.3,0-2.4,1.1-2.5,2.4c-1.4,0.3-2.6,1-3.5,2c-0.1,0.2-0.5,0.7-0.5,0.7c0,0,0,0,0,0c0,0,0,0,0,0c0,0,0,0,0,0
		c-0.3,0.4-0.5,0.8-0.7,1.3c-0.5-0.2-0.9-0.6-1.4-1.1c-0.9-0.8-1.9-1.8-3.5-1.8c-0.3,0-0.5,0.1-0.7,0.4c-0.2,0.2-0.3,0.5-0.5,0.7
		c-0.1,0.1-0.2,0.3-0.2,0.4c-0.2,0.3-0.2,0.6,0,0.8s0.4,0.4,0.7,0.5c0.6,0,1.2,1.4,1.8,2.5c0.8,1.8,1.9,4,3.9,4.8
		c1,2.6,3.5,4.3,6.3,4.3h1.6c2.6,0,5-1.6,6.1-3.9c2.1-0.4,3.7-2.3,3.7-4.5v-0.2C29.3,275.6,27.6,273.6,25.4,273.3z M17.3,272.5
		c0.3,0,0.5-0.2,0.7-0.4c0.1-0.2,0.2-0.5,0-0.8c0-0.1-0.1-0.2-0.1-0.3c0-0.4,0.3-0.8,0.8-0.8s0.8,0.3,0.8,0.8c0,0.1,0,0.2-0.1,0.3
		c-0.1,0.2-0.1,0.5,0,0.8c0.1,0.2,0.4,0.4,0.6,0.4c0.8,0.1,1.6,0.4,2.2,0.8H15C15.6,272.9,16.5,272.6,17.3,272.5z M27.6,278.1
		c0,1.5-1.2,2.8-2.7,2.9c-0.3,0-0.6,0.2-0.7,0.5c-0.7,2-2.7,3.3-4.8,3.3h-1.6c-2.2,0-4.1-1.4-4.8-3.5c-0.1-0.3-0.3-0.5-0.6-0.6
		c-1.6-0.4-2.4-2.3-3.2-4c-0.5-1-0.9-1.9-1.5-2.6c0.4,0.2,0.8,0.6,1.3,1c0.8,0.7,1.7,1.5,3,1.7c0.4,0.1,0.8-0.2,0.9-0.6
		c0.1-0.4,0.3-0.9,0.5-1.2h10.8c0,0,0,0,0.1,0c0,0,0,0,0.1,0h0.9c1.4,0.2,2.4,1.4,2.4,2.8V278.1z"/>
	<rect x="24.5" y="276.6" fill="#999999" width="1.7" height="2.8"/>
</g>
<g>
	<path fill="#999999" d="M17.2,318.5C17.2,318.5,17.2,318.5,17.2,318.5c-0.3,0-0.6-0.2-0.7-0.5c-0.6-1.6-2.2-2.9-4-4.2
		c-1.6-1.2-3.3-2.5-4.3-4.1c-0.2-0.3-0.1-0.6,0.1-0.8c-0.1,0-0.2,0-0.3,0c-0.2-0.1-0.3-0.2-0.4-0.4c-0.2-0.6-0.4-1.2-0.4-1.9
		c-0.2-3.1,2-5.4,4.2-5.9c2.3-0.6,4.4,0.3,5.8,2.4c1.7-2.4,4.1-2.8,5.9-2.3c2.6,0.7,4.3,3.1,4.1,5.9c0,0.6-0.2,1.2-0.4,1.8
		c-0.1,0.2-0.2,0.3-0.4,0.4c-0.1,0-0.2,0.1-0.3,0.1c0.2,0.2,0.2,0.6,0.1,0.8c-1,1.7-2.7,3-4.4,4.2c-1.8,1.3-3.4,2.6-4,4.1
		C17.7,318.4,17.5,318.5,17.2,318.5z M8.9,308.7c0.2,0,0.4,0.1,0.5,0.3c0.9,1.5,2.5,2.6,4,3.8c1.4,1.1,2.9,2.2,3.8,3.6
		c0.9-1.3,2.3-2.4,3.8-3.5c1.5-1.2,3.1-2.4,4-3.8c0.1-0.2,0.3-0.3,0.5-0.3l-0.4-0.2l-1,1.1c-0.1,0.2-0.3,0.2-0.6,0.2
		c-0.2,0-0.4-0.1-0.5-0.3l-0.7-1l-0.9,1.4c-0.1,0.2-0.4,0.3-0.7,0.3c-0.3,0-0.5-0.2-0.6-0.5l-0.7-2.1l-1.6,4.6
		c-0.1,0.3-0.4,0.5-0.7,0.5c0,0,0,0,0,0c-0.3,0-0.6-0.2-0.7-0.5l-1-2.7l-0.3,0.4c-0.2,0.2-0.4,0.3-0.6,0.3c-0.2,0-0.5-0.2-0.5-0.4
		l-1.2-3.2l-1.1,2.5c-0.1,0.2-0.3,0.4-0.5,0.4c-0.2,0-0.5-0.1-0.6-0.3l-0.9-1.1L8.9,308.7z M15.8,307.5c0,0,0.1,0,0.1,0
		c0.3,0,0.5,0.2,0.5,0.5l0.7,2.1l1.6-4.6c0.1-0.3,0.4-0.5,0.7-0.5c0,0,0,0,0,0c0.3,0,0.6,0.2,0.7,0.5l0.9,2.6l0.7-1.1
		c0.1-0.2,0.3-0.3,0.6-0.3c0.2,0,0.4,0.1,0.6,0.3l0.8,1.1l0.7-0.8c0.2-0.2,0.5-0.3,0.8-0.2l0.6,0.2c0-0.2,0.1-0.5,0.1-0.7
		c0.1-2.5-1.5-4.1-3.1-4.5c-2-0.5-3.8,0.5-4.9,2.7c-0.1,0.2-0.4,0.4-0.6,0.4c-0.3,0-0.5-0.2-0.6-0.4c-1.2-2.6-3.2-3.1-4.8-2.7
		c-1.7,0.4-3.4,2.1-3.2,4.5c0,0.2,0.1,0.5,0.1,0.7l1-0.5c0.3-0.2,0.7-0.1,0.9,0.2l0.5,0.7l1.3-3c0.1-0.3,0.4-0.4,0.7-0.4
		c0.3,0,0.5,0.2,0.6,0.4l1.4,3.6l0.3-0.4C15.4,307.6,15.6,307.5,15.8,307.5z"/>
</g>
<g>
	<path fill="#999999" d="M26.7,330c-0.1-0.2-0.3-0.4-0.6-0.4c-0.2-0.1-0.5,0-0.7,0.1l-4.5,2.7c-0.4,0.3-0.6,0.8-0.3,1.3
		c0.3,0.4,0.8,0.6,1.3,0.3l0.8-0.5v2.7l-4.3,7.3l-1.6-1.7c-0.6-0.6-1.3-1.1-2.1-1.4l-0.4-4c0.5,0.1,0.9-0.2,1.1-0.6
		c0.1-0.2,0-0.5-0.1-0.7c-0.1-0.2-0.3-0.4-0.5-0.4l-2.4-0.7c-0.2-0.1-0.5,0-0.7,0.1c-0.2,0.1-0.4,0.3-0.4,0.5
		c-0.1,0.5,0.1,1,0.6,1.1l0.6,0.2l0.4,4.2c0,0,0,0-0.1,0c-3,0-5.4,2.4-5.4,5.4c0,2.6,1.9,4.8,4.4,5.3v1c0,0.1,0,0.1,0,0.2H9
		c-0.5,0-0.9,0.4-0.9,0.9s0.4,0.9,0.9,0.9h15.8c0.5,0,0.9-0.4,0.9-0.9s-0.4-0.9-0.9-0.9h-2.7v-0.9c0-0.1,0-0.1,0-0.2h0.8
		c0.5,0,0.9-0.4,0.9-0.9c0-0.3-0.1-0.5-0.3-0.7l-3.7-4.1l4.7-8.1c0.1-0.1,0.1-0.3,0.1-0.5v-4l1.8-1.1c0.2-0.1,0.4-0.3,0.4-0.6
		C26.9,330.5,26.9,330.2,26.7,330z M20.8,348.8h-7.9c-1.9,0-3.5-1.6-3.5-3.5s1.6-3.5,3.5-3.5c1,0,2,0.4,2.7,1.2L20.8,348.8z
		 M13.7,351.7c0-0.1,0-0.1,0-0.2v-0.9h6.6c0,0.1,0,0.1,0,0.2v0.9H13.7z"/>
	<path fill="#999999" d="M13.1,342.9c-1.3,0-2.3,1.1-2.3,2.3c0,1.3,1.1,2.3,2.3,2.3c1.3,0,2.3-1.1,2.3-2.3
		C15.5,344,14.4,342.9,13.1,342.9z M13.1,346.6c-0.7,0-1.3-0.6-1.3-1.3c0-0.7,0.6-1.3,1.3-1.3c0.7,0,1.3,0.6,1.3,1.3
		C14.5,346,13.9,346.6,13.1,346.6z"/>
	<path fill="#999999" d="M15,348.1c0,0.3,0.3,0.6,0.6,0.6h1.6c0.3,0,0.6-0.3,0.6-0.6c0-0.3-0.2-0.5-0.4-0.6l0.5-0.8
		c0.1-0.1,0.1-0.3,0.1-0.5c0-0.2-0.1-0.3-0.3-0.4c-0.3-0.2-0.7-0.1-0.8,0.2l-0.8,1.4h-0.4C15.3,347.5,15,347.8,15,348.1z"/>
</g>
<g>
	<g>
		<path fill="#D71A21" d="M60.5,158.4H43.9c-1.6,0-2.8-1.3-2.8-2.8v-8.7c0-1.6,1.3-2.8,2.8-2.8h1.5l1.3-2.2c0.5-0.9,1.4-1.4,2.4-1.4
			h6.2c1,0,1.9,0.5,2.4,1.4l1.3,2.2h1.5c1.6,0,2.8,1.3,2.8,2.8v8.7C63.3,157.2,62,158.4,60.5,158.4z M43.9,145.7
			c-0.7,0-1.2,0.5-1.2,1.2v8.7c0,0.7,0.5,1.2,1.2,1.2h16.6c0.7,0,1.2-0.5,1.2-1.2v-8.7c0-0.7-0.5-1.2-1.2-1.2H58l-1.7-3
			c-0.2-0.4-0.6-0.6-1-0.6h-6.2c-0.4,0-0.8,0.2-1,0.6l-1.7,3H43.9z M52.2,156.6c-3.1,0-5.7-2.5-5.7-5.7c0-3.1,2.5-5.7,5.7-5.7
			c3.1,0,5.7,2.5,5.7,5.7C57.8,154.1,55.3,156.6,52.2,156.6z M52.2,146.9c-2.2,0-4,1.8-4,4c0,2.2,1.8,4,4,4c2.2,0,4-1.8,4-4
			C56.2,148.7,54.4,146.9,52.2,146.9z"/>
	</g>
	<g>
		<path fill="#D71A21" d="M54,144.5h-3.6c-0.4,0-0.8-0.4-0.8-0.8c0-0.4,0.4-0.8,0.8-0.8H54c0.4,0,0.8,0.4,0.8,0.8
			C54.8,144.1,54.5,144.5,54,144.5z"/>
	</g>
	<g>
		<path fill="#D71A21" d="M52.2,154.2c-1.8,0-3.2-1.5-3.2-3.2c0-0.5,0.1-0.9,0.3-1.4l1.5,0.7c-0.1,0.2-0.2,0.5-0.2,0.7
			c0,0.9,0.7,1.6,1.6,1.6c0.9,0,1.6-0.7,1.6-1.6c0-0.9-0.7-1.6-1.6-1.6c-0.2,0-0.4,0-0.6,0.1l-0.6-1.5c0.4-0.1,0.7-0.2,1.1-0.2
			c1.8,0,3.2,1.5,3.2,3.2C55.4,152.7,54,154.2,52.2,154.2z"/>
	</g>
</g>
<g>
	<g>
		<path fill="#D71A21" d="M57.7,32.6H46.7c-1.4,0-2.5-1.1-2.5-2.5V12.5c0-1.4,1.1-2.5,2.5-2.5h10.9c1.4,0,2.5,1.1,2.5,2.5v17.7
			C60.1,31.5,59,32.6,57.7,32.6z M46.7,11.6c-0.4,0-0.8,0.4-0.8,0.8v17.7c0,0.4,0.4,0.8,0.8,0.8h10.9c0.4,0,0.8-0.4,0.8-0.8V12.5
			c0-0.4-0.4-0.8-0.8-0.8H46.7z M57.6,28.3H46.7V13.7h10.9V28.3z M48.4,26.7H56V15.3h-7.6V26.7z"/>
	</g>
	<g>
		<path fill="#D71A21" d="M52.2,30.8c-0.6,0-1.2-0.5-1.2-1.2s0.5-1.2,1.2-1.2c0.6,0,1.2,0.5,1.2,1.2S52.8,30.8,52.2,30.8z
			 M52.2,29.2c-0.3,0-0.5,0.2-0.5,0.5s0.2,0.5,0.5,0.5s0.5-0.2,0.5-0.5S52.5,29.2,52.2,29.2z"/>
	</g>
	<g>
		<path fill="#D71A21" d="M52.2,13.6c-0.5,0-0.9-0.4-0.9-0.9s0.4-0.9,0.9-0.9c0.5,0,0.9,0.4,0.9,0.9S52.7,13.6,52.2,13.6z M52.2,12
			c-0.4,0-0.7,0.3-0.7,0.7c0,0.4,0.3,0.7,0.7,0.7c0.4,0,0.7-0.3,0.7-0.7C52.9,12.3,52.6,12,52.2,12z"/>
	</g>
</g>
<g>
	<path fill="#D71A21" d="M62.1,94.4H55l-0.7-1.8h-4.2l-0.7,1.8h-7.2c-0.5,0-0.9-0.2-1.1-0.6c-0.2-0.4-0.2-0.9,0-1.3l1.8-3.2V78.1
		c0-0.9,0.8-1.7,1.7-1.7h15.2c0.9,0,1.7,0.8,1.7,1.7v11.2l1.8,3.2c0.2,0.4,0.2,0.9,0,1.3C63,94.1,62.6,94.4,62.1,94.4z M56.1,92.8
		h5.6l-1.5-2.5H44.1l-1.5,2.5h5.6L49,91h6.3L56.1,92.8z M44.5,88.7h15.5V78.1c0-0.1-0.1-0.1-0.1-0.1H44.6c-0.1,0-0.1,0.1-0.1,0.1
		V88.7z"/>
</g>
<g>
	<path fill="#D71A21" d="M57.4,62.3H47c-0.5,0-0.9-0.4-0.9-0.9c0-0.5,0.4-0.9,0.9-0.9h4.3v-1.5h-8.1c-1.3,0-2.3-1-2.3-2.3V46.6
		c0-1.3,1-2.3,2.3-2.3h17.9c1.3,0,2.3,1,2.3,2.3v10.1c0,1.3-1,2.3-2.3,2.3h-8.1v1.5h4.3c0.5,0,0.9,0.4,0.9,0.9
		C58.3,62,57.9,62.3,57.4,62.3z M52.2,57.3h9c0.3,0,0.6-0.3,0.6-0.6V46.6c0-0.3-0.3-0.6-0.6-0.6H43.2c-0.3,0-0.6,0.3-0.6,0.6v10.1
		c0,0.3,0.3,0.6,0.6,0.6H52.2z M60,56.5H44.4c-0.5,0-0.9-0.4-0.9-0.9v-7.8c0-0.5,0.4-0.9,0.9-0.9H60c0.5,0,0.9,0.4,0.9,0.9v7.8
		C60.9,56.1,60.5,56.5,60,56.5z M45.3,54.8h13.9v-6.1H45.3V54.8z"/>
</g>
<g>
	<path fill="#D71A21" d="M65.1,115.4l0-0.4c-0.2-3.7-3.3-6.6-7-6.6c-1.7,0-3.3,0.6-4.5,1.7h-2.8c-1.3-1.1-2.8-1.7-4.5-1.7
		c-3.7,0-6.8,2.9-7,6.6c0,0.6,0.4,1.1,1,1.1c0.6,0,1.1-0.4,1.1-1c0.1-2.6,2.3-4.6,4.9-4.6c1.3,0,2.5,0.5,3.4,1.4l0.3,0.3h4.5
		l0.3-0.3c0.9-0.9,2.1-1.4,3.4-1.4c2.6,0,4.7,2,4.9,4.6l0,7.8c0,0.8-0.6,1.4-1.4,1.4c-0.8,0-1.1-0.4-1.3-0.7l-2.1-3.4l-0.5,0
		c-1.3-0.1-2.6-0.8-3.4-1.9L54,118h-3.6l-0.3,0.4c-0.8,1.1-2.1,1.7-3.4,1.9l-0.5,0l-2.1,3.4c-0.3,0.4-0.7,0.7-1.2,0.7
		c-0.8,0-1.5-0.5-1.5-1.4c0-0.6-0.5-1.1-1.1-1.1c-0.6,0-1.1,0.5-1.1,1.1c0,2,1.6,3.5,3.6,3.5c1.2,0,2.3-0.6,3-1.7l1.5-2.5
		c1.5-0.3,3-1,4-2.2H53c1,1.1,2.5,1.9,4,2.2l1.5,2.5c0.7,1.1,1.8,1.7,3.1,1.7c1.9,0,3.5-1.6,3.5-3.5L65.1,115.4z"/>
	<path fill="#D71A21" d="M45.9,110.8c-0.6,0-1.1,0.5-1.1,1.1v2.1h-2.1c-0.6,0-1.1,0.5-1.1,1.1s0.5,1.1,1.1,1.1h2.1v2.1
		c0,0.6,0.5,1.1,1.1,1.1c0.6,0,1.1-0.5,1.1-1.1v-2.1H49c0.6,0,1.1-0.5,1.1-1.1S49.6,114,49,114h-2.1v-2.1
		C46.9,111.3,46.5,110.8,45.9,110.8z"/>
	<path fill="#D71A21" d="M61.9,115.5c0-0.9-0.7-1.4-1.5-1.5c-0.8,0-1.5,0.7-1.5,1.5s0.7,1.5,1.5,1.5
		C61.3,116.9,61.9,116.3,61.9,115.5z M60.4,116.1c-0.3,0-0.6-0.4-0.6-0.7c0-0.4,0.3-0.7,0.7-0.7c0.4,0,0.7,0.3,0.7,0.7
		C61.1,115.8,60.8,116.1,60.4,116.1C60.4,116.1,60.4,116.1,60.4,116.1z"/>
	<path fill="#D71A21" d="M54.3,115.5c0,0.8,0.7,1.5,1.5,1.5s1.5-0.7,1.5-1.5c0-0.9-0.7-1.4-1.5-1.5C55,114,54.3,114.7,54.3,115.5z
		 M56.4,115.5c0,0.4-0.3,0.7-0.7,0.7c0,0,0,0,0,0c-0.4,0-0.6-0.4-0.6-0.7c0-0.4,0.3-0.7,0.7-0.7S56.4,115.1,56.4,115.5z"/>
	<path fill="#D71A21" d="M58.1,111.6c-0.8,0-1.5,0.7-1.5,1.5s0.7,1.5,1.5,1.5c0.8,0,1.5-0.7,1.5-1.5
		C59.6,112.2,58.8,111.7,58.1,111.6z M58.1,113.7C58.1,113.7,58.1,113.7,58.1,113.7c-0.3,0-0.6-0.4-0.6-0.7c0-0.4,0.3-0.7,0.7-0.7
		c0.4,0,0.7,0.3,0.7,0.7C58.8,113.5,58.5,113.7,58.1,113.7z"/>
	<path fill="#D71A21" d="M58.1,116.4c-0.8,0-1.5,0.7-1.5,1.5c0,0.8,0.7,1.5,1.5,1.5c0.8,0,1.5-0.7,1.5-1.5
		C59.6,116.9,58.8,116.4,58.1,116.4z M58.1,118.5c-0.4,0-0.6-0.4-0.6-0.7c0-0.4,0.3-0.7,0.7-0.7c0.4,0,0.7,0.3,0.7,0.7
		C58.8,118.2,58.5,118.5,58.1,118.5z"/>
</g>
<g>
	<path fill="#D71A21" d="M45.2,441.1c-0.7,0-1.3,0.6-1.3,1.3s0.6,1.3,1.3,1.3s1.3-0.6,1.3-1.3S45.9,441.1,45.2,441.1z M45.2,443
		c-0.4,0-0.7-0.3-0.7-0.7c0-0.4,0.3-0.7,0.7-0.7c0.4,0,0.7,0.3,0.7,0.7C45.9,442.7,45.6,443,45.2,443z"/>
	<path fill="#D71A21" d="M59.1,441.1c-0.7,0-1.3,0.6-1.3,1.3s0.6,1.3,1.3,1.3s1.3-0.6,1.3-1.3S59.8,441.1,59.1,441.1z M59.1,443
		c-0.4,0-0.7-0.3-0.7-0.7c0-0.4,0.3-0.7,0.7-0.7c0.4,0,0.7,0.3,0.7,0.7C59.8,442.7,59.5,443,59.1,443z"/>
	<path fill="#D71A21" d="M66.3,436.9c0-0.1,0-0.1,0-0.2v-0.5l0-0.1c-0.1-1.3-1.2-2.4-2.6-2.4h-3.8l-3.1-3.6c-0.8-1-1.9-1.5-3.2-1.5
		h-5.8c-1.3,0-2.4,0.5-3.2,1.5l-3.1,3.6h-0.9c-1.3,0-2.4,1-2.6,2.3l0,5.5c0,1.2,0.9,2.1,2.1,2.1h1c0.6,1.7,2.2,2.9,4,2.9
		c1.9,0,3.5-1.2,4-2.9h5.8c0.6,1.7,2.2,2.9,4,2.9c1.9,0,3.5-1.2,4-2.9h1c1.2,0,2.1-0.9,2.1-2.1v-4.5C66.3,437,66.3,437,66.3,436.9z
		 M51.7,430.6h1.9c0.7,0,1.3,0.3,1.7,0.8l2,2.3h-5.7V430.6z M46.1,431.4c0.4-0.5,1-0.8,1.7-0.8h1.9v3.2h-5.7L46.1,431.4z
		 M45.2,444.7c-1.3,0-2.3-1-2.3-2.3c0-1.3,1-2.3,2.3-2.3c1.3,0,2.3,1,2.3,2.3C47.6,443.7,46.5,444.7,45.2,444.7z M59.1,444.7
		c-1.3,0-2.3-1-2.3-2.3c0-1.3,1-2.3,2.3-2.3c1.3,0,2.3,1,2.3,2.3C61.4,443.7,60.4,444.7,59.1,444.7z M64.2,441.8h-0.8
		c-0.3-2.1-2.1-3.6-4.2-3.6c-2.1,0-3.9,1.6-4.2,3.6h-5.5c-0.3-2.1-2.1-3.6-4.2-3.6c-2.1,0-3.9,1.6-4.2,3.6h-0.9
		c-0.1,0-0.2-0.1-0.2-0.1l0-3.7h0.5c0.5,0,1-0.4,1-1s-0.4-1-1-1h-0.4c0.1-0.1,0.3-0.2,0.5-0.2h23.1c0.2,0,0.4,0.1,0.5,0.2h-1.1
		c-0.5,0-1,0.4-1,1s0.4,1,1,1h1.2v3.7C64.3,441.7,64.3,441.8,64.2,441.8z"/>
	<rect x="51.2" y="436.2" fill="#D71A21" width="1.9" height="1.5"/>
	<rect x="48.3" y="436.2" fill="#D71A21" width="1.9" height="1.5"/>
</g>
<g>
	<path fill="#D71A21" d="M60,366.7C60,366.7,60,366.7,60,366.7c-0.6-1.8-2.3-2.8-4.1-2.6c-0.4-1.7-1.9-3.1-3.8-3.1
		c-1.8,0-3.4,1.3-3.8,3.1c-0.7-0.1-1.5,0.1-2.2,0.4c-0.9,0.5-1.6,1.3-1.9,2.2c-0.6,1.8,0.2,3.6,1.7,4.5c-0.7,1.6-0.2,3.6,1.2,4.7
		c1.5,1.1,3.5,0.9,4.8-0.3c0.7,0.7,1.6,1,2.6,1c0.8,0,1.6-0.2,2.3-0.7c1.5-1.1,2-3.1,1.2-4.7C59.8,370.4,60.6,368.5,60,366.7z
		 M57,369.9c0,0-0.1,0-0.1,0l-0.1,0c-0.3,0.1-0.6,0.3-0.6,0.6c-0.1,0.3,0,0.6,0.2,0.9l0.1,0.1c0,0,0.1,0.1,0.1,0.1
		c0.7,0.9,0.5,2.3-0.5,3c-0.9,0.7-2.3,0.5-3-0.5c0,0,0-0.1-0.1-0.1l-0.1-0.1c-0.2-0.3-0.4-0.4-0.8-0.4s-0.6,0.2-0.8,0.4l-0.1,0.1
		c0,0,0,0.1-0.1,0.1c-0.7,0.9-2,1.2-3,0.5c-0.9-0.7-1.2-2-0.5-3c0,0,0.1-0.1,0.1-0.1l0.1-0.1c0.2-0.2,0.3-0.6,0.2-0.9
		c-0.1-0.3-0.3-0.5-0.6-0.6l-0.1,0c0,0-0.1,0-0.1,0c-1.1-0.4-1.7-1.6-1.4-2.7c0.2-0.5,0.5-1,1.1-1.2c0.5-0.3,1.1-0.3,1.6-0.1
		c0,0,0.1,0,0.1,0.1l0.1,0c0.3,0.1,0.6,0.1,0.9-0.1c0.3-0.2,0.4-0.5,0.4-0.8l0-0.1c0,0,0-0.1,0-0.1c0-1.2,0.9-2.1,2.1-2.1
		c1.2,0,2.1,0.9,2.1,2.1c0,0,0,0.1,0,0.1l0,0.1c0,0.3,0.1,0.6,0.4,0.8c0.3,0.2,0.6,0.2,0.9,0.1l0.1,0c0,0,0.1,0,0.1,0
		c1.1-0.4,2.3,0.2,2.7,1.4C58.7,368.4,58.1,369.6,57,369.9z"/>
	<path fill="#D71A21" d="M52.2,365.9c-1.8,0-3.3,1.5-3.3,3.3c0,1.8,1.5,3.3,3.3,3.3s3.3-1.5,3.3-3.3C55.5,367.4,54,365.9,52.2,365.9
		z M52.2,370.9c-0.9,0-1.6-0.7-1.6-1.6c0-0.9,0.7-1.6,1.6-1.6c0.9,0,1.6,0.7,1.6,1.6C53.8,370.1,53.1,370.9,52.2,370.9z"/>
	<path fill="#D71A21" d="M58,377.9h-5v-1.1h-1.7v1.1h-5c-0.5,0-0.9,0.4-0.9,0.9c0,0.5,0.4,0.9,0.9,0.9h0.5l0.6,5.7
		c0,0.4,0.4,0.8,0.9,0.8h7.8c0.4,0,0.8-0.3,0.9-0.8l0.6-5.7H58c0.5,0,0.9-0.4,0.9-0.9C58.9,378.3,58.5,377.9,58,377.9z M55.3,384.4
		h-6.2l-0.5-4.8h7.2L55.3,384.4z"/>
</g>
<g>
	<path fill="#D71A21" d="M60.2,476.2L60.2,476.2c-0.4-0.3-0.9-0.6-1.3-0.9c0,0,0.1,0,0.1,0c0.9-0.3,2.8-0.9,2.9-2.9
		c0-1.6-1.2-3-2.9-3.1c-0.3,0-0.7-0.1-1-0.1c1-1.2,1.6-2.6,1.6-4.1c0-0.2,0-0.4,0-0.6c1.2-0.9,1.7-2.4,1.4-3.9
		c-0.3-1.3-1.4-2.4-2.6-2.7c-1.4-0.4-2.7,0-3.7,0.9c-1.5-0.5-3.2-0.5-4.8,0c-1-0.9-2.3-1.3-3.7-0.9c-1.3,0.4-2.3,1.4-2.6,2.7
		c-0.4,1.5,0.2,3,1.4,3.9c0,0.2,0,0.4,0,0.6c0,1.5,0.6,2.9,1.6,4.1c-0.4,0-0.7,0-1,0.1c-1.6,0.1-2.9,1.5-2.9,3c0,1.6,1.5,2.7,2.8,3
		l0.1,0c0,0,0,0,0,0c-0.4,0.3-0.8,0.6-1.2,0.9c-1.3,1-1.7,2.8-0.8,4.1c0.5,0.7,1.2,1.2,2,1.3c0.8,0.1,1.7-0.1,2.3-0.6
		c0.8-0.6,1.5-1.1,2.6-1.4c1.2,0.5,2.5,0.5,3.7,0c1.2,0.2,1.8,0.7,2.6,1.4c0.5,0.4,1.2,0.6,1.8,0.6c1.1,0,2.1-0.6,2.6-1.5
		C61.9,478.8,61.5,477.1,60.2,476.2z M59.5,479.2c-0.2,0.4-0.6,0.6-1,0.6c-0.3,0-0.5-0.1-0.7-0.2c-1-0.8-1.9-1.5-3.7-1.8l-0.6,0.1
		c-0.8,0.4-1.8,0.4-2.6,0l-0.6-0.1c-1.8,0.3-2.7,1-3.7,1.8c-0.3,0.2-0.6,0.3-0.9,0.2c-0.3-0.1-0.6-0.2-0.8-0.5
		c-0.3-0.5-0.2-1.2,0.4-1.6c0.9-0.7,1.9-1.4,3.1-2l-0.2-1.8c-0.8-0.2-1.9-0.4-2.5-0.5l-0.1,0c-0.6-0.1-1.3-0.6-1.3-1.2
		c0-0.6,0.5-1.1,1.2-1.2c0.9-0.1,1.9-0.1,2.9-0.2c0.5,0,0.9-0.3,1-0.8c0.1-0.5-0.1-0.9-0.5-1.2c-1.4-0.9-2.3-2.4-2.3-3.9
		c0-0.1,0-0.3,0-0.4c0.1-0.6-0.2-1.3-0.7-1.6c-0.6-0.5-0.9-1.2-0.7-2c0.2-0.7,0.7-1.2,1.3-1.4c0.2-0.1,0.4-0.1,0.5-0.1
		c0.6,0,1.2,0.3,1.6,0.8l1.1,0.3c1.5-0.6,3.2-0.6,4.6,0l1.1-0.3c0.5-0.7,1.3-1,2.2-0.8c0.6,0.2,1.2,0.7,1.3,1.4
		c0.2,0.8-0.1,1.5-0.7,2c-0.5,0.4-0.8,1-0.7,1.6c0,0.1,0,0.3,0,0.4c0,1.5-0.9,3-2.3,3.9c-0.4,0.3-0.6,0.7-0.5,1.2
		c0.1,0.5,0.5,0.8,1,0.8c1.1,0,2,0.1,2.9,0.2c0.7,0.1,1.2,0.6,1.2,1.2c0,0.4-0.3,0.7-1.6,1.2c-0.2,0.1-0.5,0.2-0.8,0.2
		c-0.5,0.2-1.3,0.4-1.5,0.4l-0.1,1.8c1.3,0.4,2.1,1,3,1.7C59.6,478,59.8,478.7,59.5,479.2z"/>
	<path fill="#D71A21" d="M56.1,465.3c0.5,0,0.9-0.4,0.9-0.9v-0.8c0-0.5-0.4-0.9-0.9-0.9c-0.5,0-0.9,0.4-0.9,0.9v0.8
		C55.2,464.9,55.6,465.3,56.1,465.3z"/>
	<path fill="#D71A21" d="M49.4,463.6c0-0.5-0.4-0.9-0.9-0.9c-0.5,0-0.9,0.4-0.9,0.9v0.8c0,0.5,0.4,0.9,0.9,0.9
		c0.5,0,0.9-0.4,0.9-0.9V463.6z"/>
	<path fill="#D71A21" d="M51.1,468.4c0.4,0,0.8-0.1,1.1-0.3c0.3,0.2,0.7,0.3,1.1,0.3c0.7,0,1.3-0.3,1.6-0.9c0.3-0.4,0.2-1-0.2-1.3
		c-0.4-0.3-1-0.2-1.3,0.2c0,0,0,0.1-0.1,0.1c-0.1,0-0.1-0.1-0.1-0.1c0-0.3-0.2-0.6-0.4-0.8c0.2-0.2,0.4-0.4,0.4-0.7v-0.5
		c0-0.5-0.4-0.9-0.9-0.9s-0.9,0.4-0.9,0.9v0.5c0,0.3,0.2,0.6,0.4,0.7c-0.2,0.2-0.4,0.4-0.4,0.7c0,0.1-0.1,0.1-0.1,0.1
		c-0.1,0-0.1,0-0.1-0.1c-0.3-0.4-0.9-0.5-1.3-0.2c-0.4,0.3-0.5,0.9-0.2,1.3C49.8,468,50.5,468.4,51.1,468.4z"/>
	<path fill="#D71A21" d="M52.2,470.5c-1.7,0-3,1.5-3,3.4s1.4,3.4,3,3.4c1.7,0,3-1.5,3-3.4S53.9,470.5,52.2,470.5z M52.2,475.6
		c-0.6,0-1.2-0.7-1.2-1.6c0-0.9,0.5-1.6,1.2-1.6c0.6,0,1.2,0.7,1.2,1.6C53.4,474.9,52.8,475.6,52.2,475.6z"/>
</g>
<g>
	<path fill="#D71A21" d="M59.7,233.5h-15c-1,0-1.9,0.8-1.9,1.9v20.2c0,1,0.8,1.9,1.9,1.9h15c1,0,1.9-0.8,1.9-1.9v-20.2
		C61.6,234.3,60.7,233.5,59.7,233.5z M50,255.7h-5.3c-0.1,0-0.1-0.1-0.1-0.1v-20.2c0-0.1,0.1-0.1,0.1-0.1H50V255.7z M59.8,255.6
		c0,0.1-0.1,0.1-0.1,0.1h-7.9v-20.5h7.9c0.1,0,0.1,0.1,0.1,0.1V255.6z"/>
	<path fill="#D71A21" d="M58.8,243.6c-0.2-0.4-0.8-0.6-1.2-0.3l-0.6,0.4v-0.7c0-0.5-0.4-0.9-0.9-0.9s-0.9,0.4-0.9,0.9v0.7l-0.6-0.4
		c-0.4-0.2-1-0.1-1.2,0.3c-0.2,0.4-0.1,1,0.3,1.2l0.6,0.4l-0.6,0.4c-0.4,0.2-0.6,0.8-0.3,1.2c0.2,0.3,0.5,0.4,0.8,0.4
		c0.1,0,0.3,0,0.4-0.1l0.6-0.4v0.7c0,0.5,0.4,0.9,0.9,0.9s0.9-0.4,0.9-0.9v-0.7l0.6,0.4c0.1,0.1,0.3,0.1,0.4,0.1
		c0.3,0,0.6-0.2,0.8-0.4c0.2-0.4,0.1-1-0.3-1.2l-0.6-0.4l0.6-0.4C58.9,244.5,59.1,244,58.8,243.6z"/>
	<path fill="#D71A21" d="M47.6,248.3c0.5,0,0.9-0.4,0.9-0.9v-4.6c0-0.5-0.4-0.9-0.9-0.9s-0.9,0.4-0.9,0.9v4.6
		C46.7,247.9,47.1,248.3,47.6,248.3z"/>
</g>
<g>
	<path fill="#D71A21" d="M60.1,220.5c1-1.1,1.6-2.6,1.6-4.2c0-0.4,0-0.8-0.1-1.2c-0.1-0.6-0.7-1-1.3-1h-9.8c-0.6,0-1.2,0.4-1.3,1.1
		c-0.1,0.4-0.1,0.8-0.1,1.2c0,1.5,0.6,3,1.6,4.1H50c-0.6,0-1-0.5-1-1v-9.2h10.7c0.8,0,1.5-0.7,1.5-1.5V205c0-0.8-0.7-1.5-1.5-1.5
		H44.2c-0.8,0-1.5,0.7-1.5,1.5v4.5c0,0,0,0,0,0v12.4c0,0.8,0.7,1.5,1.5,1.5h15.6c0.7,0,1.3-0.6,1.3-1.3v-0.4
		C61.1,221.1,60.7,220.6,60.1,220.5z M44.1,205c0-0.1,0.1-0.1,0.1-0.1h15.3c0.1,0,0.1,0.1,0.1,0.1v3.7c0,0.1-0.1,0.1-0.1,0.1H44.1
		V205z M57.4,221.3c0.1,0.3,0.4,0.5,0.7,0.5h1.6v0.2H44.2c-0.1,0-0.1-0.1-0.1-0.1v-11.7h3.4v9.2c0,1.4,1.1,2.5,2.5,2.5h2.7
		c0.3,0,0.6-0.2,0.7-0.5c0.1-0.3-0.1-0.6-0.3-0.8c-1.5-0.9-2.5-2.5-2.5-4.2c0-0.3,0-0.5,0.1-0.8h9.6c0,0.3,0.1,0.5,0.1,0.8
		c0,1.7-0.9,3.4-2.5,4.2C57.5,220.7,57.4,221,57.4,221.3z"/>
	<path fill="#D71A21" d="M55.6,213.9c0.4,0,0.7-0.3,0.7-0.7v-0.9h1.4c0.4,0,0.7-0.3,0.7-0.7c0-0.4-0.3-0.7-0.7-0.7h-4.2
		c-0.4,0-0.7,0.3-0.7,0.7c0,0.4,0.3,0.7,0.7,0.7h1.4v0.9C54.9,213.6,55.3,213.9,55.6,213.9z"/>
	<path fill="#D71A21" d="M58,205.6c-0.5,0-1,0.4-1,1c0,0.5,0.4,1,1,1c0.5,0,1-0.4,1-1C59,206,58.6,205.6,58,205.6z M58,207
		c-0.2,0-0.4-0.2-0.4-0.4c0-0.2,0.2-0.4,0.4-0.4c0.2,0,0.4,0.2,0.4,0.4C58.5,206.8,58.3,207,58,207z"/>
</g>
<g>
	<path fill="#D71A21" d="M58.8,171.4H45.6c-0.8,0-1.5,0.7-1.5,1.5v16.9c0,0.8,0.7,1.5,1.5,1.5h13.2c0.8,0,1.5-0.7,1.5-1.5V173
		C60.3,172.1,59.6,171.4,58.8,171.4z M58.9,189.9c0,0.1-0.1,0.1-0.1,0.1H45.6c-0.1,0-0.1-0.1-0.1-0.1v-13.3h13.4V189.9z M58.9,175.2
		H45.5V173c0-0.1,0.1-0.1,0.1-0.1h13.2c0.1,0,0.1,0,0.1,0.1V175.2z"/>
	<path fill="#D71A21" d="M57.8,173c-0.5,0-1,0.4-1,1c0,0.5,0.4,1,1,1s1-0.4,1-1C58.7,173.5,58.3,173,57.8,173z M57.8,174.4
		c-0.2,0-0.4-0.2-0.4-0.4c0-0.2,0.2-0.4,0.4-0.4c0.2,0,0.4,0.2,0.4,0.4C58.2,174.2,58,174.4,57.8,174.4z"/>
	<path fill="#D71A21" d="M55.1,173c-0.5,0-1,0.4-1,1c0,0.5,0.4,1,1,1s1-0.4,1-1C56.1,173.5,55.7,173,55.1,173z M55.1,174.4
		c-0.2,0-0.4-0.2-0.4-0.4c0-0.2,0.2-0.4,0.4-0.4c0.2,0,0.4,0.2,0.4,0.4C55.6,174.2,55.4,174.4,55.1,174.4z"/>
	<path fill="#D71A21" d="M52.5,173c-0.5,0-1,0.4-1,1c0,0.5,0.4,1,1,1c0.5,0,1-0.4,1-1C53.4,173.5,53,173,52.5,173z M52.5,174.4
		c-0.2,0-0.4-0.2-0.4-0.4c0-0.2,0.2-0.4,0.4-0.4c0.2,0,0.4,0.2,0.4,0.4C52.9,174.2,52.7,174.4,52.5,174.4z"/>
	<path fill="#D71A21" d="M46.6,173c-0.5,0-1,0.4-1,1c0,0.5,0.4,1,1,1s1-0.4,1-1C47.6,173.5,47.2,173,46.6,173z M46.6,174.4
		c-0.2,0-0.4-0.2-0.4-0.4c0-0.2,0.2-0.4,0.4-0.4c0.2,0,0.4,0.2,0.4,0.4C47.1,174.2,46.9,174.4,46.6,174.4z"/>
	<path fill="#D71A21" d="M52.1,189.3c3.3,0,6-2.7,6-6c0-3.3-2.7-6-6-6c-3.3,0-6,2.7-6,6C46,186.6,48.7,189.3,52.1,189.3z
		 M52.1,178.7c2.5,0,4.6,2.1,4.6,4.6c0,2.5-2.1,4.6-4.6,4.6c-2.5,0-4.6-2.1-4.6-4.6C47.5,180.8,49.5,178.7,52.1,178.7z"/>
</g>
<path fill="#D71A21" d="M62.2,406.9l-3.7-10c-0.3-0.8-1.1-1.4-1.9-1.4h-8.6c-0.9,0-1.6,0.5-1.9,1.3l-3.7,10c-0.2,0.5-0.1,1,0.2,1.5
	c0.3,0.4,0.8,0.7,1.3,0.7h7.5v4.6h-1.9v1.9h5.8v-1.9h-1.9v-4.6h7.5c0.5,0,1-0.3,1.3-0.7C62.3,408,62.4,407.4,62.2,406.9z
	 M44.2,407.2l3.6-9.5c0-0.1,0.1-0.1,0.1-0.1h8.6c0.1,0,0.1,0,0.1,0.1l3.6,9.5H44.2z"/>
<g>
	<path fill="#D71A21" d="M60.4,273.3c0,0-0.1,0-0.1,0h-0.5l-0.3-0.3c-0.8-1-1.9-1.6-3.2-2c0,0,0,0,0,0c0-1.4-1.1-2.5-2.5-2.5
		c-1.3,0-2.4,1.1-2.5,2.4c-1.4,0.3-2.6,1-3.5,2c-0.1,0.2-0.5,0.7-0.5,0.7c0,0,0,0,0,0c0,0,0,0,0,0c0,0,0,0,0,0
		c-0.3,0.4-0.5,0.8-0.7,1.3c-0.5-0.2-0.9-0.6-1.4-1.1c-0.9-0.8-1.9-1.8-3.5-1.8c-0.3,0-0.5,0.1-0.7,0.4c-0.2,0.2-0.3,0.5-0.5,0.7
		c-0.1,0.1-0.2,0.3-0.2,0.4c-0.2,0.3-0.2,0.6,0,0.8s0.4,0.4,0.7,0.5c0.6,0,1.2,1.4,1.8,2.5c0.8,1.8,1.9,4,3.9,4.8
		c1,2.6,3.5,4.3,6.3,4.3h1.6c2.6,0,5-1.6,6.1-3.9c2.1-0.4,3.7-2.3,3.7-4.5v-0.2C64.3,275.6,62.6,273.6,60.4,273.3z M52.3,272.5
		c0.3,0,0.5-0.2,0.7-0.4c0.1-0.2,0.2-0.5,0-0.8c0-0.1-0.1-0.2-0.1-0.3c0-0.4,0.3-0.8,0.8-0.8s0.8,0.3,0.8,0.8c0,0.1,0,0.2-0.1,0.3
		c-0.1,0.2-0.1,0.5,0,0.8c0.1,0.2,0.4,0.4,0.6,0.4c0.8,0.1,1.6,0.4,2.2,0.8H50C50.6,272.9,51.5,272.6,52.3,272.5z M62.6,278.1
		c0,1.5-1.2,2.8-2.7,2.9c-0.3,0-0.6,0.2-0.7,0.5c-0.7,2-2.7,3.3-4.8,3.3h-1.6c-2.2,0-4.1-1.4-4.8-3.5c-0.1-0.3-0.3-0.5-0.6-0.6
		c-1.6-0.4-2.4-2.3-3.2-4c-0.5-1-0.9-1.9-1.5-2.6c0.4,0.2,0.8,0.6,1.3,1c0.8,0.7,1.7,1.5,3,1.7c0.4,0.1,0.8-0.2,0.9-0.6
		c0.1-0.4,0.3-0.9,0.5-1.2h10.8c0,0,0,0,0.1,0c0,0,0,0,0.1,0h0.9c1.4,0.2,2.4,1.4,2.4,2.8V278.1z"/>
	<rect x="59.5" y="276.6" fill="#D71A21" width="1.7" height="2.8"/>
</g>
<g>
	<path fill="#D71A21" d="M52.2,318.5C52.2,318.5,52.2,318.5,52.2,318.5c-0.3,0-0.6-0.2-0.7-0.5c-0.6-1.6-2.2-2.9-4-4.2
		c-1.6-1.2-3.3-2.5-4.3-4.1c-0.2-0.3-0.1-0.6,0.1-0.8c-0.1,0-0.2,0-0.3,0c-0.2-0.1-0.3-0.2-0.4-0.4c-0.2-0.6-0.4-1.2-0.4-1.9
		c-0.2-3.1,2-5.4,4.2-5.9c2.3-0.6,4.4,0.3,5.8,2.4c1.7-2.4,4.1-2.8,5.9-2.3c2.6,0.7,4.3,3.1,4.1,5.9c0,0.6-0.2,1.2-0.4,1.8
		c-0.1,0.2-0.2,0.3-0.4,0.4c-0.1,0-0.2,0.1-0.3,0.1c0.2,0.2,0.2,0.6,0.1,0.8c-1,1.7-2.7,3-4.4,4.2c-1.8,1.3-3.4,2.6-4,4.1
		C52.7,318.4,52.5,318.5,52.2,318.5z M43.9,308.7c0.2,0,0.4,0.1,0.5,0.3c0.9,1.5,2.5,2.6,4,3.8c1.4,1.1,2.9,2.2,3.8,3.6
		c0.9-1.3,2.3-2.4,3.8-3.5c1.5-1.2,3.1-2.4,4-3.8c0.1-0.2,0.3-0.3,0.5-0.3l-0.4-0.2l-1,1.1c-0.1,0.2-0.3,0.2-0.6,0.2
		c-0.2,0-0.4-0.1-0.5-0.3l-0.7-1l-0.9,1.4c-0.1,0.2-0.4,0.3-0.7,0.3c-0.3,0-0.5-0.2-0.6-0.5l-0.7-2.1l-1.6,4.6
		c-0.1,0.3-0.4,0.5-0.7,0.5c0,0,0,0,0,0c-0.3,0-0.6-0.2-0.7-0.5l-1-2.7l-0.3,0.4c-0.2,0.2-0.4,0.3-0.6,0.3c-0.2,0-0.5-0.2-0.5-0.4
		l-1.2-3.2l-1.1,2.5c-0.1,0.2-0.3,0.4-0.5,0.4c-0.2,0-0.5-0.1-0.6-0.3l-0.9-1.1L43.9,308.7z M50.8,307.5c0,0,0.1,0,0.1,0
		c0.3,0,0.5,0.2,0.5,0.5l0.7,2.1l1.6-4.6c0.1-0.3,0.4-0.5,0.7-0.5c0,0,0,0,0,0c0.3,0,0.6,0.2,0.7,0.5l0.9,2.6l0.7-1.1
		c0.1-0.2,0.3-0.3,0.6-0.3c0.2,0,0.4,0.1,0.6,0.3l0.8,1.1l0.7-0.8c0.2-0.2,0.5-0.3,0.8-0.2l0.6,0.2c0-0.2,0.1-0.5,0.1-0.7
		c0.1-2.5-1.5-4.1-3.1-4.5c-2-0.5-3.8,0.5-4.9,2.7c-0.1,0.2-0.4,0.4-0.6,0.4c-0.3,0-0.5-0.2-0.6-0.4c-1.2-2.6-3.2-3.1-4.8-2.7
		c-1.7,0.4-3.4,2.1-3.2,4.5c0,0.2,0.1,0.5,0.1,0.7l1-0.5c0.3-0.2,0.7-0.1,0.9,0.2l0.5,0.7l1.3-3c0.1-0.3,0.4-0.4,0.7-0.4
		c0.3,0,0.5,0.2,0.6,0.4l1.4,3.6l0.3-0.4C50.4,307.6,50.6,307.5,50.8,307.5z"/>
</g>
<g>
	<path fill="#D71A21" d="M61.7,330c-0.1-0.2-0.3-0.4-0.6-0.4c-0.2-0.1-0.5,0-0.7,0.1l-4.5,2.7c-0.4,0.3-0.6,0.8-0.3,1.3
		c0.3,0.4,0.8,0.6,1.3,0.3l0.8-0.5v2.7l-4.3,7.3l-1.6-1.7c-0.6-0.6-1.3-1.1-2.1-1.4l-0.4-4c0.5,0.1,0.9-0.2,1.1-0.6
		c0.1-0.2,0-0.5-0.1-0.7c-0.1-0.2-0.3-0.4-0.5-0.4l-2.4-0.7c-0.2-0.1-0.5,0-0.7,0.1c-0.2,0.1-0.4,0.3-0.4,0.5
		c-0.1,0.5,0.1,1,0.6,1.1l0.6,0.2l0.4,4.2c0,0,0,0-0.1,0c-3,0-5.4,2.4-5.4,5.4c0,2.6,1.9,4.8,4.4,5.3v1c0,0.1,0,0.1,0,0.2H44
		c-0.5,0-0.9,0.4-0.9,0.9s0.4,0.9,0.9,0.9h15.8c0.5,0,0.9-0.4,0.9-0.9s-0.4-0.9-0.9-0.9h-2.7v-0.9c0-0.1,0-0.1,0-0.2h0.8
		c0.5,0,0.9-0.4,0.9-0.9c0-0.3-0.1-0.5-0.3-0.7l-3.7-4.1l4.7-8.1c0.1-0.1,0.1-0.3,0.1-0.5v-4l1.8-1.1c0.2-0.1,0.4-0.3,0.4-0.6
		C61.9,330.5,61.9,330.2,61.7,330z M55.8,348.8h-7.9c-1.9,0-3.5-1.6-3.5-3.5s1.6-3.5,3.5-3.5c1,0,2,0.4,2.7,1.2L55.8,348.8z
		 M48.7,351.7c0-0.1,0-0.1,0-0.2v-0.9h6.6c0,0.1,0,0.1,0,0.2v0.9H48.7z"/>
	<path fill="#D71A21" d="M48.1,342.9c-1.3,0-2.3,1.1-2.3,2.3c0,1.3,1.1,2.3,2.3,2.3c1.3,0,2.3-1.1,2.3-2.3
		C50.5,344,49.4,342.9,48.1,342.9z M48.1,346.6c-0.7,0-1.3-0.6-1.3-1.3c0-0.7,0.6-1.3,1.3-1.3c0.7,0,1.3,0.6,1.3,1.3
		C49.5,346,48.9,346.6,48.1,346.6z"/>
	<path fill="#D71A21" d="M50,348.1c0,0.3,0.3,0.6,0.6,0.6h1.6c0.3,0,0.6-0.3,0.6-0.6c0-0.3-0.2-0.5-0.4-0.6l0.5-0.8
		c0.1-0.1,0.1-0.3,0.1-0.5c0-0.2-0.1-0.3-0.3-0.4c-0.3-0.2-0.7-0.1-0.8,0.2l-0.8,1.4h-0.4C50.3,347.5,50,347.8,50,348.1z"/>
</g>
<polygon fill="#D71A21" points="19.6,503.2 15.5,499 14.6,499.8 18.8,504 14.6,508.2 15.5,509 20.5,504 "/>
</svg>
