<svg xmlns="http://www.w3.org/2000/svg" width="22.75" height="22.01" viewBox="0 0 22.75 22.01"><defs><style>.cls-1{fill:#fcfcfc;}</style></defs><title>Asset 9</title><g id="Layer_2" data-name="Layer 2"><g id="Layer_1-2" data-name="Layer 1"><path id="Profile_1_копия" data-name="Profile 1 копия" class="cls-1" d="M20.16,22H2.59A2.93,2.93,0,0,1,.34,20.39a3.07,3.07,0,0,1,0-2.77l1-2.08a5.37,5.37,0,0,1,4.1-2.69,19.84,19.84,0,0,0,2-.39L8,12.32a7.19,7.19,0,0,1-2.4-5.51C5.57,3.05,8.18,0,11.4,0s5.83,3.05,5.83,6.81a7.19,7.19,0,0,1-2.39,5.49l.5.13a17.61,17.61,0,0,0,2,.36,5.25,5.25,0,0,1,4.08,2.61l1,2a3.6,3.6,0,0,1,0,3A2.93,2.93,0,0,1,20.16,22ZM9.61,11.15a3,3,0,0,1,.62,1.71,1,1,0,0,1-.35.79,4.77,4.77,0,0,1-2,.75,20.16,20.16,0,0,1-2.32.43A3.39,3.39,0,0,0,3.08,16.4l-1,2.08a1.22,1.22,0,0,0-.08.86,1.45,1.45,0,0,0,.58.67H20.15a1.64,1.64,0,0,0,.58-.67,1.86,1.86,0,0,0-.08-1.07l-1-2a3.34,3.34,0,0,0-2.48-1.5,19.4,19.4,0,0,1-2.3-.41,4.76,4.76,0,0,1-2-.74,1,1,0,0,1-.35-.78,2.9,2.9,0,0,1,.67-1.77,1.37,1.37,0,0,1,.17-.17,5.13,5.13,0,0,0,1.84-4.1C15.24,4.16,13.52,2,11.4,2S7.55,4.16,7.55,6.81a5.13,5.13,0,0,0,1.84,4.1,1,1,0,0,1,.22.24Z"/></g></g></svg>